<?xml version="1.0" encoding="UTF-8" standalone="no"?>
<!-- Created with Inkscape (http://www.inkscape.org/) -->

<svg
   xmlns:dc="http://purl.org/dc/elements/1.1/"
   xmlns:cc="http://creativecommons.org/ns#"
   xmlns:rdf="http://www.w3.org/1999/02/22-rdf-syntax-ns#"
   xmlns:svg="http://www.w3.org/2000/svg"
   xmlns="http://www.w3.org/2000/svg"
   xmlns:sodipodi="http://sodipodi.sourceforge.net/DTD/sodipodi-0.dtd"
   xmlns:inkscape="http://www.inkscape.org/namespaces/inkscape"
   version="1.1"
   id="svg2"
   width="682.66669"
   height="682.66669"
   viewBox="0 0 682.66669 682.66669"
   sodipodi:docname="logo.svg"
   inkscape:version="0.92.5 (2060ec1f9f, 2020-04-08)">
  <metadata
     id="metadata8">
    <rdf:RDF>
      <cc:Work
         rdf:about="">
        <dc:format>image/svg+xml</dc:format>
        <dc:type
           rdf:resource="http://purl.org/dc/dcmitype/StillImage" />
        <dc:title></dc:title>
      </cc:Work>
    </rdf:RDF>
  </metadata>
  <defs
     id="defs6">
    <clipPath
       clipPathUnits="userSpaceOnUse"
       id="clipPath142">
      <path
         d="m 1080.57,2657.77 c -2.56,0 -5.12,0.02 -7.7,0.06 4.95,8.57 9.34,17.41 12.83,26.63 -0.93,-9.44 0.61,-18.19 3.26,-26.61 -0.5,-0.01 -1,-0.02 -1.5,-0.03 -2.31,-0.03 -4.6,-0.05 -6.89,-0.05"
         id="path140"
         inkscape:connector-curvature="0" />
    </clipPath>
    <clipPath
       clipPathUnits="userSpaceOnUse"
       id="clipPath234">
      <path
         d="m 3227.38,2585.79 c -14.03,0.01 -30.92,16.35 -35.28,40.27 -8.24,45.3 -67.31,106.37 -94.69,139.07 -21.27,25.36 19.84,37.39 47.57,37.39 8,0 14.89,-1.01 18.84,-2.98 27.18,-13.55 77.03,-99.88 83.36,-168.4 2.97,-32.32 -7.27,-45.35 -19.8,-45.35"
         id="path232"
         inkscape:connector-curvature="0" />
    </clipPath>
  </defs>
  <sodipodi:namedview
     pagecolor="#ffffff"
     bordercolor="#666666"
     borderopacity="1"
     objecttolerance="10"
     gridtolerance="10"
     guidetolerance="10"
     inkscape:pageopacity="0"
     inkscape:pageshadow="2"
     inkscape:window-width="1848"
     inkscape:window-height="1016"
     id="namedview4"
     showgrid="false"
     inkscape:zoom="0.69140623"
     inkscape:cx="150.53633"
     inkscape:cy="377.9422"
     inkscape:window-x="72"
     inkscape:window-y="27"
     inkscape:window-maximized="1"
     inkscape:current-layer="svg2" />
  <g
     id="g12"
     transform="matrix(0.16051261,0,0,-0.16051261,1.7586018,681.88777)"
     inkscape:export-xdpi="97"
     inkscape:export-ydpi="97">
    <g
       id="g1215">
      <path
         inkscape:connector-curvature="0"
         id="path14"
         style="fill:#f68712;fill-opacity:1;fill-rule:nonzero;stroke:none"
         d="m 30.5078,2095.51 h 2125.99 V 4221.5 H 30.5078 Z" />
      <path
         inkscape:connector-curvature="0"
         id="path16"
         style="fill:#351f17;fill-opacity:1;fill-rule:nonzero;stroke:none"
         d="M 2187.01,4252.01 H 0 V 2065 H 2187.01 V 2126.01 4191 Z M 2126,4191 V 2126.01 H 61.0273 V 4191 H 2126" />
      <path
         inkscape:connector-curvature="0"
         id="path18"
         style="fill:#80cc28;fill-opacity:1;fill-rule:nonzero;stroke:none"
         d="M 30.5078,30.5117 V 2156.5 H 2156.5 V 30.5117 H 30.5078" />
      <path
         inkscape:connector-curvature="0"
         id="path20"
         style="fill:#351f17;fill-opacity:1;fill-rule:nonzero;stroke:none"
         d="M 2187.01,2187.01 H 0 V 0 H 2187.01 V 61.0117 2125.99 Z M 2126,2125.99 V 61.0117 H 61.0273 V 2125.99 H 2126" />
      <path
         inkscape:connector-curvature="0"
         id="path22"
         style="fill:#51ade5;fill-opacity:1;fill-rule:nonzero;stroke:none"
         d="M 2095.49,2095.51 H 4221.48 V 4221.5 H 2095.49 Z" />
      <path
         inkscape:connector-curvature="0"
         id="path24"
         style="fill:#351f17;fill-opacity:1;fill-rule:nonzero;stroke:none"
         d="M 4251.99,4252.01 H 2064.98 V 2065 H 4251.99 V 2126.01 4191 Z M 4190.98,4191 V 2126.01 H 2126 V 4191 h 2064.98" />
      <path
         inkscape:connector-curvature="0"
         id="path26"
         style="fill:#f033a3;fill-opacity:1;fill-rule:nonzero;stroke:none"
         d="M 2095.49,30.5117 V 2156.5 H 4221.48 V 30.5117 H 2095.49" />
      <path
         inkscape:connector-curvature="0"
         id="path28"
         style="fill:#351f17;fill-opacity:1;fill-rule:nonzero;stroke:none"
         d="M 4251.99,2187.01 H 2064.98 V 0 H 4251.99 V 61.0117 2125.99 Z m -61.01,-61.02 V 61.0117 H 2126 V 2125.99 h 2064.98" />
      <path
         inkscape:connector-curvature="0"
         id="path30"
         style="fill:#ffffff;fill-opacity:1;fill-rule:nonzero;stroke:none;stroke-width:0.90499586"
         d="m 2465.6498,1655.3526 h -740.01 v 1009.1771 h 740.01 V 1655.3526" />
      <path
         inkscape:connector-curvature="0"
         id="path32"
         style="fill:#351f17;fill-opacity:1;fill-rule:nonzero;stroke:none;stroke-width:0.91615534"
         d="m 2465.6498,1634.3355 v 21.0171 h -714.97 v 992.1845 h 689.92 V 1634.3355 h 25.05 v 21.0171 -21.0171 h 25.04 v 1055.2442 h -790.1 V 1613.31 h 790.1 v 21.0255 h -25.04" />
      <path
         inkscape:connector-curvature="0"
         id="path34"
         style="fill:#ffffff;fill-opacity:1;fill-rule:nonzero;stroke:none"
         d="m 777.246,1075.87 c -145.535,0 -263.945,118.41 -263.945,263.95 0,145.52 118.41,263.9 263.945,263.9 145.52,0 263.904,-118.38 263.904,-263.9 0,-145.54 -118.384,-263.95 -263.904,-263.95" />
      <path
         inkscape:connector-curvature="0"
         id="path36"
         style="fill:#351f17;fill-opacity:1;fill-rule:nonzero;stroke:none"
         d="m 777.246,1619.76 c -154.383,0 -279.988,-125.57 -279.988,-279.94 0,-154.39 125.605,-280 279.988,-280 154.367,0 279.954,125.61 279.954,280 0,154.37 -125.587,279.94 -279.954,279.94 z m 0,-32.09 c 136.887,0 247.864,-110.98 247.864,-247.85 0,-136.91 -110.977,-247.91 -247.864,-247.91 -136.902,0 -247.898,111 -247.898,247.91 0,136.87 110.996,247.85 247.898,247.85" />
      <path
         inkscape:connector-curvature="0"
         id="path38"
         style="fill:#d3d2d2;fill-opacity:1;fill-rule:nonzero;stroke:none"
         d="m 893.938,1558.51 c 54.667,-45.46 89.453,-113.98 89.453,-190.63 0,-136.89 -110.977,-247.88 -247.871,-247.88 -42.188,0 -81.934,10.55 -116.7,29.15 42.95,-35.72 98.172,-57.24 158.426,-57.24 136.887,0 247.864,111 247.864,247.91 0,94.68 -53.118,176.97 -131.172,218.69" />
      <path
         inkscape:connector-curvature="0"
         id="path40"
         style="fill:#ffffff;fill-opacity:1;fill-rule:nonzero;stroke:none"
         d="m 1358.06,1075.87 c -145.54,0 -263.94,118.41 -263.94,263.95 0,145.52 118.4,263.9 263.94,263.9 145.52,0 263.91,-118.38 263.91,-263.9 0,-145.54 -118.39,-263.95 -263.91,-263.95" />
      <path
         inkscape:connector-curvature="0"
         id="path42"
         style="fill:#351f17;fill-opacity:1;fill-rule:nonzero;stroke:none"
         d="m 1358.06,1619.76 c -154.38,0 -279.98,-125.57 -279.98,-279.94 0,-154.39 125.6,-280 279.98,-280 154.37,0 279.96,125.61 279.96,280 0,154.37 -125.59,279.94 -279.96,279.94 z m 0,-32.09 c 136.9,0 247.87,-110.98 247.87,-247.85 0,-136.91 -110.97,-247.91 -247.87,-247.91 -136.91,0 -247.89,111 -247.89,247.91 0,136.87 110.98,247.85 247.89,247.85" />
      <path
         inkscape:connector-curvature="0"
         id="path44"
         style="fill:#d3d2d2;fill-opacity:1;fill-rule:nonzero;stroke:none"
         d="m 1474.78,1558.51 c 54.64,-45.46 89.44,-113.98 89.44,-190.63 0,-136.89 -111,-247.88 -247.88,-247.88 -42.21,0 -81.92,10.55 -116.71,29.15 42.96,-35.72 98.17,-57.24 158.43,-57.24 136.9,0 247.87,111 247.87,247.91 0,94.68 -53.09,176.97 -131.15,218.69" />
      <path
         inkscape:connector-curvature="0"
         id="path46"
         style="fill:#351f17;fill-opacity:1;fill-rule:nonzero;stroke:none"
         d="m 790.48,1324.83 h -6.488 l 6.11,-2.01 c 0.367,1.13 0.378,1.85 0.378,2.01 h -6.488 l 6.11,-2.01 -9.664,3.18 7.863,-6.42 c 0.859,1.03 1.492,2.27 1.801,3.24 l -9.664,3.18 7.863,-6.42 -7.293,5.96 3.316,-8.92 c 0.61,0.2 2.449,1.07 3.977,2.96 l -7.293,5.96 3.316,-8.92 -1.246,3.35 0.879,-3.47 0.367,0.12 -1.246,3.35 0.879,-3.47 c 0.012,0.03 1.414,0.24 3.648,0.58 2.235,0.4 5.458,0.94 9.333,2.85 l -6.958,13.94 v -15.58 6.92 l -2.203,-6.65 c 0.168,-0.02 0.438,-0.23 2.203,-0.27 v 6.92 l -2.203,-6.65 0.149,0.44 -0.219,-0.41 0.07,-0.03 0.149,0.44 -0.219,-0.41 2.074,3.96 -3.164,-3.05 1.09,-0.91 2.074,3.96 -3.164,-3.05 7.5,7.24 -9.254,-4.75 c 0.688,-1.32 1.321,-2.04 1.754,-2.49 l 7.5,7.24 -9.254,-4.75 11.395,5.85 h -12.781 c 0,-2.53 0.718,-4.56 1.386,-5.85 l 11.395,5.85 h -12.781 v -1.29 l 0.211,-1.28 c 0.246,-1.46 0.363,-2.9 0.363,-4.32 0,-4.87 -1.395,-9.36 -3.77,-12.87 -2.41,-3.52 -5.652,-6.16 -10.297,-7.73 l -1.039,-0.35 -0.98,-0.49 c -1.508,-0.75 -3.309,-1.5 -4.899,-1.99 -1.586,-0.49 -2.961,-0.67 -3.382,-0.65 v -0.05 l 0.007,0.03 -0.007,0.02 v -0.05 l 0.007,0.03 -0.839,-4.11 1.875,3.73 -1.036,0.38 -0.839,-4.11 1.875,3.73 -1,0.5 -1.067,0.36 c -6.312,2.12 -11.472,5.68 -15.922,10.66 -4.418,4.96 -8.011,11.38 -10.449,18.71 l -14.777,-4.92 15.367,2.55 c -0.481,2.89 -0.711,5.73 -0.711,8.51 0.066,24.16 17.121,44.83 42.254,49.08 l 0.769,0.13 -0.765,-0.13 c 2.41,0.4 4.871,0.59 7.39,0.59 11.207,0.06 23.825,-3.99 35.594,-8.74 l 5.785,14.46 -6.328,-14.23 c 9.891,-4.42 17.149,-12.04 22.313,-21.98 5.121,-9.88 7.734,-21.97 7.715,-33.26 0.035,-7.3 0.781,-13.31 0.746,-18.04 -0.024,-4.83 -0.559,-7.98 -2.141,-11.19 l -0.047,-0.09 0.031,0.07 c -3.242,-6.53 -5.507,-11.78 -7.699,-15.82 -2.211,-4.08 -4.203,-7.03 -7.488,-10.36 l 0.019,0.02 c -19.347,-19.21 -41.613,-29.01 -66.589,-29.09 -2.821,0 -5.68,0.13 -8.582,0.39 l -1.403,-15.51 2.363,15.4 c -34.332,5.33 -63.011,26.14 -78.996,57.99 l -13.933,-6.97 14.769,4.95 c -4.84,14.35 -9.097,29.64 -9.054,43.82 0,3.19 0.203,6.33 0.644,9.41 l 0.016,0.13 0.019,0.13 c 3.7,29.55 18.121,54.98 38.953,73.19 20.844,18.18 47.981,28.96 76.985,28.96 4.832,0 9.719,-0.3 14.644,-0.92 l 1.93,15.46 -3.047,-15.27 c 14.723,-2.96 25.426,-5.64 39.512,-11.28 l 5.801,14.46 -6.129,-14.32 c 8.902,-3.82 16.523,-8.86 23.871,-15.2 7.336,-6.33 14.34,-13.98 21.617,-22.72 l 11.969,9.98 -12.602,-9.17 c 18.391,-25.28 28.766,-53.82 28.754,-82.39 0,-5.92 -0.441,-11.86 -1.355,-17.8 l -0.032,-0.21 -0.027,-0.22 c -2.742,-21.81 -10.144,-41.29 -21.66,-58.59 -11.524,-17.29 -27.238,-32.41 -46.789,-44.97 l 8.418,-13.11 -7.617,13.59 c -25.844,-14.47 -53.375,-21.53 -80.266,-21.53 -45.391,0.07 -88.953,19.89 -120.281,59.81 l -12.266,-9.6 12.957,8.64 c -17.23,25.88 -28.293,50.94 -33.933,78.97 l -15.274,-3.06 15.367,2.55 c -0.836,5.03 -1.125,9.82 -1.129,14.79 -0.031,9.9 1.309,20.72 1.34,33.98 h -15.578 l 15.422,-2.2 c 2.785,19.69 8.484,39.37 16.633,55.63 11.191,22.26 24.488,38.3 44.512,55.54 l 0.058,0.05 0.031,0.03 c 31.903,27.76 70.911,40.57 110.602,40.6 66.789,0.06 134.437,-36.89 167.359,-99.53 4.016,-7.61 13.442,-10.52 21.047,-6.51 7.61,4.02 10.524,13.44 6.512,21.05 -39.012,73.69 -116.953,116.08 -194.918,116.15 -46.383,0.03 -93.152,-15.22 -131.066,-48.27 l 0.089,0.08 c -22.238,-19.01 -39.117,-39.19 -52.089,-65.26 -9.973,-19.97 -16.387,-42.58 -19.618,-65.17 l -0.152,-1.09 v -1.1 c 0.027,-10.89 -1.305,-21.52 -1.34,-33.98 0,-6.21 0.375,-12.83 1.551,-19.89 l 0.043,-0.26 0.051,-0.25 c 6.465,-32.38 19.547,-61.66 38.562,-90.14 l 0.328,-0.49 0.364,-0.46 c 36.933,-47.3 90.214,-71.84 144.816,-71.77 32.355,0 65.176,8.52 95.496,25.51 l 0.41,0.23 0.395,0.25 c 22.73,14.6 41.738,32.69 55.879,53.91 14.144,21.2 23.343,45.51 26.648,72 l -15.457,1.94 15.395,-2.37 c 1.16,7.53 1.718,15.05 1.718,22.53 -0.007,36.18 -13.082,70.99 -34.711,100.72 l -0.304,0.42 -0.328,0.39 c -7.821,9.38 -15.911,18.34 -25.184,26.35 -9.262,8.01 -19.754,15.04 -31.984,20.26 l -0.164,0.07 -0.164,0.07 c -16.11,6.48 -29.582,9.84 -45.016,12.91 l -0.559,0.11 -0.558,0.07 c -6.211,0.78 -12.391,1.15 -18.504,1.15 -36.774,0 -71.153,-13.66 -97.473,-36.64 -26.328,-22.96 -44.719,-55.42 -49.379,-92.79 l 15.457,-1.93 -15.422,2.2 c -0.668,-4.67 -0.957,-9.29 -0.957,-13.81 0.039,-20.14 5.606,-38.48 10.668,-53.71 l 0.348,-1.04 0.488,-0.98 c 20.231,-40.62 57.992,-68.14 102.137,-74.86 l 0.48,-0.07 0.481,-0.05 c 3.816,-0.34 7.617,-0.51 11.391,-0.51 33.601,-0.08 64.511,13.98 88.617,38.21 l 0.074,0.07 -0.055,-0.05 c 5.766,5.75 9.805,11.86 12.867,17.6 3.083,5.77 5.34,11.09 8.133,16.65 l -0.015,-0.03 c 4.492,8.91 5.468,17.87 5.449,25.16 -0.035,7.3 -0.781,13.32 -0.746,18.04 -0.024,15.88 -3.457,32.49 -11.176,47.53 -7.676,14.98 -20.055,28.51 -37.355,36.18 l -0.266,0.11 -0.277,0.12 c -12.887,5.1 -28.95,10.91 -47.161,10.96 -4.086,0 -8.273,-0.3 -12.507,-1.01 v 0 c -39.871,-6.56 -68.364,-40.51 -68.297,-79.81 0,-4.49 0.371,-9.05 1.129,-13.61 l 0.203,-1.22 0.386,-1.16 c 3.598,-10.77 9.071,-20.94 16.727,-29.57 7.633,-8.61 17.57,-15.6 29.363,-19.51 l 4.922,14.78 -6.984,-13.93 c 4.527,-2.26 9.027,-2.9 12.926,-2.91 4.734,0.02 8.824,0.91 12.492,2.02 3.656,1.12 6.887,2.51 9.664,3.89 l -6.938,13.94 4.918,-14.78 c 11.164,3.69 20.289,10.92 26.289,19.87 6.032,8.95 9.094,19.53 9.094,30.3 0,3.14 -0.258,6.31 -0.785,9.46 l -15.363,-2.57 h 15.578 c 0,2.99 -0.762,5.63 -1.695,7.64 -1.688,3.56 -3.7,5.56 -5.485,7.15 -2.73,2.31 -5.265,3.67 -7.93,4.79 -2.742,1.05 -5.281,1.94 -9.543,2.02 h -3.671 l -3.286,-1.64 1.918,-3.84 -1.476,4.04 -0.442,-0.2 1.918,-3.84 -1.476,4.04 0.324,-0.89 -0.254,0.91 -0.07,-0.02 0.324,-0.89 -0.254,0.91 c -0.121,-0.04 -1.043,-0.22 -2.605,-0.44 -1.18,-0.19 -2.727,-0.4 -4.723,-0.91 -1.496,-0.39 -3.277,-0.95 -5.285,-1.97 -2.981,-1.46 -6.555,-4.38 -8.715,-8.29 -2.203,-3.89 -2.891,-8.03 -2.883,-11.58 0,-8.6 6.977,-15.57 15.578,-15.57 8.606,0 15.578,6.97 15.578,15.57" />
      <path
         inkscape:connector-curvature="0"
         id="path48"
         style="fill:#351f17;fill-opacity:1;fill-rule:nonzero;stroke:none"
         d="m 1371.28,1324.83 h -6.5 l 6.12,-2.01 c 0.37,1.12 0.38,1.85 0.38,2.01 h -6.5 l 6.12,-2.01 -9.66,3.18 7.86,-6.43 c 0.86,1.04 1.49,2.28 1.8,3.25 l -9.66,3.18 7.86,-6.43 -7.29,5.96 3.31,-8.92 c 0.61,0.21 2.45,1.07 3.98,2.96 l -7.29,5.96 3.31,-8.92 -1.23,3.33 0.87,-3.45 0.36,0.12 -1.23,3.33 0.87,-3.45 c 0.02,0.04 1.42,0.25 3.66,0.59 2.24,0.4 5.45,0.94 9.33,2.84 l -6.94,13.95 v -15.58 7.02 l -2.24,-6.74 c 0.17,-0.02 0.44,-0.24 2.24,-0.28 v 7.02 l -2.24,-6.74 0.16,0.49 -0.24,-0.46 0.08,-0.03 0.16,0.49 -0.24,-0.46 2.08,3.97 -3.17,-3.06 1.09,-0.91 2.08,3.97 -3.17,-3.06 7.5,7.23 -9.25,-4.74 c 0.68,-1.32 1.32,-2.03 1.75,-2.49 l 7.5,7.23 -9.25,-4.74 11.4,5.84 h -12.78 c 0,-2.52 0.71,-4.55 1.38,-5.84 l 11.4,5.84 h -12.78 v -1.3 l 0.21,-1.27 c 0.25,-1.47 0.36,-2.92 0.36,-4.34 0.01,-4.86 -1.39,-9.35 -3.76,-12.86 -2.41,-3.52 -5.65,-6.15 -10.29,-7.72 l -1.05,-0.35 -0.99,-0.5 c -1.49,-0.74 -3.29,-1.49 -4.88,-1.98 -1.58,-0.49 -2.95,-0.67 -3.37,-0.65 h -0.13 l -0.32,-3.42 1.51,3.01 -1.19,0.41 -0.32,-3.42 1.51,3.01 -1.01,0.51 -1.07,0.36 c -6.31,2.12 -11.47,5.68 -15.92,10.66 -4.42,4.96 -8.01,11.38 -10.45,18.71 l -14.78,-4.92 15.37,2.56 c -0.49,2.9 -0.72,5.75 -0.72,8.54 0.07,24.13 17.13,44.79 42.26,49.04 2.42,0.4 4.88,0.59 7.4,0.59 11.21,0.06 23.82,-3.99 35.59,-8.74 l 5.78,14.46 -6.32,-14.24 c 9.89,-4.41 17.14,-12.02 22.3,-21.96 5.12,-9.88 7.73,-21.97 7.7,-33.27 0.04,-7.32 0.79,-13.35 0.76,-18.09 -0.03,-4.81 -0.56,-7.95 -2.13,-11.15 l -0.01,-0.01 c -3.25,-6.53 -5.51,-11.78 -7.7,-15.82 -2.21,-4.07 -4.2,-7.02 -7.5,-10.34 -19.32,-19.21 -41.59,-29.01 -66.57,-29.09 -2.81,0 -5.67,0.13 -8.57,0.39 l -1.41,-15.51 2.36,15.4 c -34.34,5.33 -63.01,26.13 -79.01,57.99 l -13.94,-6.97 14.79,4.91 c -4.82,14.4 -9.11,29.73 -9.07,43.91 0,3.18 0.21,6.29 0.64,9.36 l 0.02,0.13 0.02,0.13 c 3.7,29.55 18.12,54.98 38.96,73.19 20.84,18.18 47.98,28.96 76.98,28.96 4.83,0 9.72,-0.3 14.64,-0.92 l 1.93,15.46 -3.04,-15.28 c 14.74,-2.95 25.43,-5.63 39.53,-11.27 l 5.8,14.46 -6.13,-14.32 c 8.9,-3.82 16.52,-8.86 23.87,-15.2 7.33,-6.33 14.34,-13.98 21.62,-22.72 l 11.97,9.98 -12.6,-9.17 c 18.38,-25.28 28.76,-53.82 28.75,-82.39 0,-5.92 -0.44,-11.86 -1.36,-17.8 l -0.03,-0.21 -0.03,-0.22 c -2.74,-21.81 -10.14,-41.29 -21.66,-58.59 -11.53,-17.29 -27.24,-32.41 -46.78,-44.97 l 8.42,-13.11 -7.61,13.59 c -25.86,-14.47 -53.4,-21.53 -80.29,-21.53 -45.39,0.07 -88.94,19.89 -120.27,59.81 l -12.27,-9.6 12.96,8.64 c -17.24,25.88 -28.3,50.93 -33.91,78.96 l -15.28,-3.05 15.36,2.57 c -0.84,5.03 -1.13,9.8 -1.13,14.77 -0.04,9.89 1.32,20.71 1.35,33.98 h -15.58 l 15.42,-2.21 c 2.8,19.72 8.47,39.4 16.61,55.64 11.18,22.25 24.51,38.3 44.54,55.54 l 0.04,0.04 0.05,0.04 c 31.89,27.76 70.89,40.57 110.58,40.6 66.77,0.06 134.42,-36.88 167.35,-99.53 4.02,-7.61 13.44,-10.52 21.05,-6.51 7.61,4.02 10.52,13.44 6.51,21.05 -39.02,73.69 -116.96,116.08 -194.91,116.15 -46.38,0.03 -93.14,-15.22 -131.05,-48.27 l 0.1,0.08 c -22.24,-19 -39.15,-39.18 -52.13,-65.26 -9.98,-19.98 -16.35,-42.59 -19.58,-65.16 l -0.16,-1.1 v -1.1 c 0.03,-10.88 -1.31,-21.5 -1.35,-33.98 0,-6.22 0.38,-12.85 1.57,-19.91 l 0.04,-0.24 0.04,-0.24 c 6.44,-32.39 19.53,-61.67 38.55,-90.15 l 0.33,-0.49 0.37,-0.46 c 36.93,-47.3 90.2,-71.84 144.8,-71.77 32.36,0 65.18,8.52 95.51,25.51 l 0.42,0.23 0.39,0.26 c 22.72,14.59 41.72,32.68 55.86,53.9 14.15,21.2 23.35,45.51 26.66,72 l -15.46,1.94 15.4,-2.37 c 1.15,7.53 1.71,15.05 1.71,22.53 0,36.18 -13.08,70.99 -34.71,100.72 l -0.3,0.42 -0.33,0.39 c -7.82,9.38 -15.91,18.34 -25.19,26.35 -9.26,8.01 -19.75,15.04 -31.97,20.26 l -0.17,0.07 -0.17,0.07 c -16.11,6.48 -29.58,9.84 -45.04,12.91 l -0.55,0.11 -0.56,0.07 c -6.21,0.78 -12.39,1.15 -18.5,1.15 -36.77,0 -71.15,-13.66 -97.47,-36.64 -26.33,-22.96 -44.72,-55.42 -49.38,-92.79 l 15.45,-1.93 -15.42,2.2 c -0.66,-4.65 -0.95,-9.25 -0.95,-13.76 0.04,-20.17 5.64,-38.51 10.65,-53.72 l 0.35,-1.07 0.5,-0.99 c 20.25,-40.62 57.99,-68.14 102.16,-74.86 l 0.47,-0.07 0.49,-0.05 c 3.81,-0.34 7.61,-0.51 11.38,-0.51 33.6,-0.08 64.52,13.98 88.61,38.21 5.78,5.75 9.83,11.87 12.9,17.61 3.09,5.78 5.34,11.1 8.13,16.66 l -0.01,-0.02 c 4.48,8.89 5.46,17.83 5.43,25.1 -0.03,7.33 -0.79,13.36 -0.75,18.09 -0.02,15.88 -3.44,32.48 -11.16,47.53 -7.67,14.98 -20.05,28.51 -37.35,36.18 l -0.27,0.12 -0.27,0.11 c -12.89,5.1 -28.95,10.91 -47.16,10.96 -4.09,0 -8.27,-0.3 -12.51,-1.01 -39.85,-6.56 -68.37,-40.48 -68.3,-79.77 0,-4.51 0.37,-9.08 1.14,-13.67 l 0.2,-1.2 0.38,-1.16 c 3.6,-10.77 9.07,-20.94 16.73,-29.57 7.63,-8.61 17.57,-15.6 29.36,-19.51 l 4.92,14.78 -7,-13.92 c 4.54,-2.27 9.04,-2.91 12.94,-2.92 4.73,0.02 8.82,0.91 12.49,2.02 3.66,1.12 6.89,2.51 9.67,3.9 l -6.96,13.93 4.92,-14.78 c 11.16,3.69 20.28,10.92 26.28,19.86 6.03,8.95 9.1,19.52 9.1,30.29 0,3.15 -0.26,6.33 -0.79,9.49 l -15.37,-2.58 h 15.58 c 0,2.99 -0.76,5.62 -1.69,7.63 -1.68,3.55 -3.69,5.56 -5.47,7.14 -2.72,2.32 -5.25,3.68 -7.91,4.8 -2.73,1.05 -5.26,1.95 -9.54,2.03 h -3.66 l -3.28,-1.63 1.89,-3.79 -1.46,3.98 -0.43,-0.19 1.89,-3.79 -1.46,3.98 0.3,-0.81 -0.23,0.84 -0.07,-0.03 0.3,-0.81 -0.23,0.84 c -0.13,-0.05 -1.06,-0.23 -2.62,-0.45 -1.18,-0.19 -2.73,-0.4 -4.73,-0.91 -1.5,-0.39 -3.28,-0.94 -5.28,-1.96 -2.99,-1.47 -6.56,-4.38 -8.73,-8.29 -2.2,-3.89 -2.89,-8.04 -2.88,-11.59 0,-8.6 6.97,-15.57 15.57,-15.57 8.61,0 15.58,6.97 15.58,15.57" />
      <path
         inkscape:connector-curvature="0"
         id="path50"
         style="fill:#f9a8d8;fill-opacity:1;fill-rule:nonzero;stroke:none"
         d="m 886.934,612.34 c -90.274,0 -163.711,73.441 -163.711,163.711 0,90.258 73.437,163.679 163.711,163.679 h 349.096 c 90.26,0 163.7,-73.421 163.7,-163.679 0,-90.27 -73.44,-163.711 -163.7,-163.711 H 886.934" />
      <path
         inkscape:connector-curvature="0"
         id="path52"
         style="fill:#351f17;fill-opacity:1;fill-rule:nonzero;stroke:none"
         d="M 1236.03,960.59 H 886.934 c -101.766,0 -184.563,-82.781 -184.563,-184.539 0,-101.762 82.797,-184.571 184.563,-184.571 h 349.096 c 101.76,0 184.55,82.809 184.55,184.571 0,101.758 -82.79,184.539 -184.55,184.539 z m 0,-41.711 c 78.88,0 142.84,-63.969 142.84,-142.828 0,-78.891 -63.96,-142.852 -142.84,-142.852 H 886.934 c -78.895,0 -142.852,63.961 -142.852,142.852 0,78.859 63.957,142.828 142.852,142.828 h 349.096" />
      <path
         inkscape:connector-curvature="0"
         id="path54"
         style="fill:#ffffff;fill-opacity:1;fill-rule:nonzero;stroke:none"
         d="m 1366.67,806.602 c -18.63,0 -32.22,4.429 -42.06,10.41 -9.84,-5.981 -23.43,-10.41 -42.05,-10.41 -19.64,0 -33.75,4.859 -43.86,11.507 -10.11,-6.648 -24.22,-11.507 -43.87,-11.507 -19.63,0 -33.75,4.859 -43.84,11.507 -10.12,-6.648 -24.22,-11.507 -43.87,-11.507 -19.64,0 -33.75,4.859 -43.86,11.507 -10.11,-6.648 -24.21,-11.507 -43.85,-11.507 -19.633,0 -33.734,4.859 -43.851,11.507 -10.11,-6.648 -24.211,-11.507 -43.848,-11.507 -19.648,0 -33.762,4.859 -43.859,11.507 -10.118,-6.648 -24.219,-11.507 -43.848,-11.507 -19.637,0 -33.738,4.859 -43.856,11.507 -10.109,-6.648 -24.21,-11.507 -43.847,-11.507 -1.145,0 -2.266,0.007 -3.36,0.039 -6.75,0.23 -12.961,3.711 -16.691,9.339 -3.719,5.641 -4.492,12.719 -2.059,19.02 24.305,62.961 83.614,104.059 151.094,104.711 h 0.195 l 2.254,-0.133 2.512,0.152 h 82.93 l 2.39,-0.128 2.383,0.128 h 82.941 l 2.37,-0.128 2.37,0.128 h 82.97 l 2.39,-0.128 2.37,0.128 h 82.67 c 1,0 2.01,-0.07 2.98,-0.21 l 2.02,0.101 0.71,-0.012 c 65.63,-2.257 123.35,-43.308 147.03,-104.597 2.44,-6.301 1.67,-13.391 -2.06,-19.032 -3.72,-5.628 -9.95,-9.121 -16.7,-9.339 -1.11,-0.032 -2.22,-0.039 -3.34,-0.039" />
      <path
         inkscape:connector-curvature="0"
         id="path56"
         style="fill:#351f17;fill-opacity:1;fill-rule:nonzero;stroke:none"
         d="m 1236.32,960.59 h -82.96 l -2.37,-0.059 -2.39,0.059 h -82.97 l -2.37,-0.059 -2.37,0.059 h -82.941 l -2.39,-0.059 -2.383,0.059 h -82.93 l -2.637,-0.078 -2.129,0.047 -0.402,-0.008 c -76.074,-0.723 -142.937,-47.063 -170.34,-118.039 -4.867,-12.594 -3.332,-26.762 4.121,-38.032 7.442,-11.261 19.883,-18.218 33.379,-18.679 1.317,-0.051 2.676,-0.063 4.063,-0.063 18.008,0 32.402,3.524 43.847,8.711 11.446,-5.187 25.848,-8.711 43.856,-8.711 18,0 32.394,3.524 43.84,8.703 11.445,-5.179 25.847,-8.703 43.867,-8.703 18.008,0 32.402,3.524 43.848,8.711 11.445,-5.187 25.851,-8.711 43.851,-8.711 18.01,0 32.41,3.524 43.85,8.711 11.45,-5.187 25.85,-8.711 43.86,-8.711 18.01,0 32.41,3.524 43.87,8.711 11.44,-5.187 25.84,-8.711 43.84,-8.711 18.02,0 32.43,3.524 43.87,8.711 11.45,-5.187 25.84,-8.711 43.86,-8.711 17.05,0 30.88,3.102 42.05,7.832 11.17,-4.73 24.99,-7.832 42.06,-7.832 1.36,0 2.7,0.012 4.03,0.063 13.51,0.449 25.95,7.41 33.41,18.668 7.45,11.269 8.99,25.449 4.12,38.062 -26.7,69.09 -91.77,115.379 -165.78,117.918 l -1.43,0.031 -1.31,-0.019 c -1.13,0.09 -2.26,0.129 -3.39,0.129 z m 0,-41.711 c 0.84,-2.039 1.64,-4.117 2.37,-6.219 0.71,2.07 1.52,4.121 2.34,6.102 58.58,-2.012 108.2,-39.293 128.29,-91.274 l -2.65,-0.027 c -17.56,0 -33.01,4.769 -42.05,17.301 -9.07,-12.532 -24.52,-17.301 -42.06,-17.301 -18.79,0 -35.15,5.48 -43.87,20.07 -8.7,-14.59 -25.08,-20.07 -43.86,-20.07 -18.77,0 -35.13,5.48 -43.84,20.07 -8.72,-14.59 -25.1,-20.07 -43.87,-20.07 -18.76,0 -35.14,5.48 -43.85,20.07 -8.73,-14.59 -25.08,-20.07 -43.86,-20.07 -18.78,0 -35.133,5.48 -43.851,20.07 -8.711,-14.59 -25.09,-20.07 -43.848,-20.07 -18.789,0 -35.156,5.48 -43.848,20.07 -8.73,-14.59 -25.097,-20.07 -43.859,-20.07 -18.789,0 -35.137,5.48 -43.856,20.07 -8.71,-14.59 -25.089,-20.07 -43.847,-20.07 l -2.649,0.027 c 20.481,53.051 71.711,90.782 131.828,91.364 0.86,-2.051 1.641,-4.09 2.383,-6.192 0.723,2.102 1.524,4.18 2.383,6.219 h 82.93 c 0.859,-2.039 1.64,-4.117 2.383,-6.219 0.75,2.102 1.523,4.18 2.39,6.219 h 82.941 c 0.86,-2.039 1.63,-4.117 2.38,-6.219 0.74,2.102 1.52,4.18 2.36,6.219 h 82.97 c 0.84,-2.039 1.64,-4.117 2.39,-6.219 0.73,2.102 1.5,4.18 2.37,6.219 h 82.67 0.29" />
      <path
         inkscape:connector-curvature="0"
         id="path58"
         style="fill:#ffffff;fill-opacity:1;fill-rule:nonzero;stroke:none"
         d="m 886.934,612.34 c -63.125,0 -121.289,36.93 -148.184,94.07 -3.055,6.5 -2.547,14.129 1.348,20.168 3.84,5.973 10.449,9.563 17.531,9.563 h 0.281 c 17.793,-0.243 30.871,-4.602 40.422,-10.403 9.852,5.992 23.438,10.43 42.07,10.43 19.649,0 33.758,-4.859 43.868,-11.508 10.105,6.649 24.218,11.508 43.847,11.508 19.649,0 33.75,-4.859 43.856,-11.508 10.117,6.649 24.218,11.508 43.857,11.508 19.64,0 33.75,-4.859 43.86,-11.508 10.1,6.649 24.22,11.508 43.85,11.508 19.63,0 33.75,-4.859 43.85,-11.508 10.11,6.649 24.22,11.508 43.87,11.508 19.64,0 33.75,-4.859 43.86,-11.508 10.1,6.649 24.21,11.508 43.84,11.508 19.64,0 33.75,-4.867 43.86,-11.52 9.82,6.442 23.42,11.223 42.22,11.493 h 0.3 c 7.08,0 13.69,-3.59 17.53,-9.563 3.9,-6.039 4.41,-13.68 1.34,-20.18 -26.91,-57.136 -85.08,-94.058 -148.18,-94.058 H 886.934" />
      <path
         inkscape:connector-curvature="0"
         id="path60"
         style="fill:#351f17;fill-opacity:1;fill-rule:nonzero;stroke:none"
         d="m 1278.96,757.031 c -18,0 -32.41,-3.519 -43.85,-8.711 -11.44,5.192 -25.84,8.711 -43.85,8.711 -18.02,0 -32.42,-3.519 -43.87,-8.711 -11.44,5.192 -25.85,8.711 -43.85,8.711 -18,0 -32.41,-3.519 -43.85,-8.711 -11.45,5.192 -25.85,8.711 -43.86,8.711 -18.006,0 -32.4,-3.519 -43.846,-8.711 -11.445,5.192 -25.863,8.711 -43.867,8.711 -18.008,0 -32.402,-3.519 -43.847,-8.711 -11.446,5.192 -25.852,8.711 -43.868,8.711 -17.07,0 -30.91,-3.109 -42.082,-7.84 -10.75,4.539 -23.953,7.579 -40.117,7.797 L 757.629,757 c -14.16,0 -27.383,-7.199 -35.07,-19.121 -7.782,-12.09 -8.797,-27.34 -2.676,-40.359 30.312,-64.418 95.89,-106.04 167.051,-106.04 h 349.096 c 71.15,0 136.72,41.622 167.05,106.032 6.13,13.019 5.12,28.277 -2.68,40.367 -7.67,11.93 -20.9,19.121 -35.06,19.121 l -0.6,-0.012 c -17.1,-0.238 -30.88,-3.687 -41.9,-8.679 -11.45,5.203 -25.86,8.722 -43.88,8.722 z m 0,-41.722 c 18.79,0 35.13,-5.5 43.85,-20.059 8.51,14.219 24.32,19.77 42.53,20.031 -22.85,-48.511 -72.14,-82.082 -129.31,-82.082 H 886.934 c -57.176,0 -106.473,33.571 -129.305,82.082 16.992,-0.23 31.894,-5.101 40.723,-17.293 9.05,12.551 24.5,17.321 42.05,17.321 18.789,0 35.164,-5.5 43.856,-20.059 8.722,14.559 25.09,20.059 43.859,20.059 18.789,0 35.156,-5.5 43.848,-20.059 8.719,14.559 25.098,20.059 43.865,20.059 18.77,0 35.14,-5.5 43.85,-20.059 8.73,14.559 25.11,20.059 43.86,20.059 18.77,0 35.14,-5.5 43.86,-20.059 8.7,14.559 25.08,20.059 43.86,20.059 18.77,0 35.15,-5.5 43.85,-20.059 8.72,14.559 25.1,20.059 43.85,20.059" />
      <path
         inkscape:connector-curvature="0"
         id="path80"
         style="fill:#ffffff;fill-opacity:1;fill-rule:nonzero;stroke:none"
         d="m 787.453,3110.06 c -146.535,0 -265.742,119.21 -265.742,265.73 0,146.52 119.207,265.73 265.742,265.73 146.524,0 265.727,-119.21 265.727,-265.73 0,-146.52 -119.203,-265.73 -265.727,-265.73" />
      <path
         inkscape:connector-curvature="0"
         id="path82"
         style="fill:#351f17;fill-opacity:1;fill-rule:nonzero;stroke:none"
         d="m 787.453,3657.68 c -155.441,0 -281.894,-126.45 -281.894,-281.89 0,-155.44 126.453,-281.9 281.894,-281.9 155.43,0 281.897,126.46 281.897,281.9 0,155.44 -126.467,281.89 -281.897,281.89 z m 0,-32.31 c 137.813,0 249.577,-111.75 249.577,-249.58 0,-137.84 -111.764,-249.58 -249.577,-249.58 -137.851,0 -249.59,111.74 -249.59,249.58 0,137.83 111.739,249.58 249.59,249.58" />
      <path
         inkscape:connector-curvature="0"
         id="path84"
         style="fill:#d3d2d2;fill-opacity:1;fill-rule:nonzero;stroke:none"
         d="m 904.973,3596.02 c 55.019,-45.8 90.047,-114.79 90.047,-191.96 0,-137.83 -111.727,-249.58 -249.59,-249.58 -42.469,0 -82.469,10.63 -117.52,29.35 43.274,-35.99 98.879,-57.62 159.543,-57.62 137.813,0 249.577,111.74 249.577,249.58 0,95.34 -53.475,178.19 -132.057,220.23" />
      <path
         inkscape:connector-curvature="0"
         id="path86"
         style="fill:#36ab9c;fill-opacity:1;fill-rule:nonzero;stroke:none"
         d="m 941.184,3375.79 c 0,-84.92 -68.829,-153.74 -153.731,-153.74 -84.922,0 -153.75,68.82 -153.75,153.74 0,84.89 68.828,153.74 153.75,153.74 84.902,0 153.731,-68.85 153.731,-153.74" />
      <path
         inkscape:connector-curvature="0"
         id="path88"
         style="fill:#80cc28;fill-opacity:1;fill-rule:nonzero;stroke:none"
         d="m 941.184,3375.79 c 0,-84.92 -68.829,-153.74 -153.731,-153.74 -84.922,0 -153.75,68.82 -153.75,153.74 0,84.89 68.828,153.74 153.75,153.74 84.902,0 153.731,-68.85 153.731,-153.74" />
      <path
         inkscape:connector-curvature="0"
         id="path90"
         style="fill:#351f17;fill-opacity:1;fill-rule:nonzero;stroke:none"
         d="m 872.266,3375.79 c 0,-46.86 -37.977,-84.83 -84.813,-84.83 -46.848,0 -84.805,37.97 -84.805,84.83 0,46.83 37.957,84.8 84.805,84.8 46.836,0 84.813,-37.97 84.813,-84.8" />
      <path
         inkscape:connector-curvature="0"
         id="path92"
         style="fill:#ffffff;fill-opacity:1;fill-rule:nonzero;stroke:none"
         d="m 793.621,3469.49 c 0,-36.13 -29.273,-65.43 -65.406,-65.43 -36.133,0 -65.43,29.3 -65.43,65.43 0,36.14 29.297,65.42 65.43,65.42 36.133,0 65.406,-29.28 65.406,-65.42" />
      <path
         inkscape:connector-curvature="0"
         id="path94"
         style="fill:#ffffff;fill-opacity:1;fill-rule:nonzero;stroke:none"
         d="m 877.629,3308.48 c 0,-15.61 -12.637,-28.28 -28.262,-28.28 -15.605,0 -28.262,12.67 -28.262,28.28 0,15.6 12.657,28.27 28.262,28.27 15.625,0 28.262,-12.67 28.262,-28.27" />
      <path
         inkscape:connector-curvature="0"
         id="path96"
         style="fill:#ffffff;fill-opacity:1;fill-rule:nonzero;stroke:none"
         d="m 1372.28,3110.06 c -146.55,0 -265.77,119.21 -265.77,265.73 0,146.52 119.22,265.73 265.77,265.73 146.52,0 265.72,-119.21 265.72,-265.73 0,-146.52 -119.2,-265.73 -265.72,-265.73" />
      <path
         inkscape:connector-curvature="0"
         id="path98"
         style="fill:#351f17;fill-opacity:1;fill-rule:nonzero;stroke:none"
         d="m 1372.28,3657.68 c -155.45,0 -281.92,-126.45 -281.92,-281.89 0,-155.44 126.47,-281.9 281.92,-281.9 155.43,0 281.87,126.46 281.87,281.9 0,155.44 -126.44,281.89 -281.87,281.89 z m 0,-32.31 c 137.81,0 249.57,-111.75 249.57,-249.58 0,-137.84 -111.76,-249.58 -249.57,-249.58 -137.86,0 -249.61,111.74 -249.61,249.58 0,137.83 111.75,249.58 249.61,249.58" />
      <path
         inkscape:connector-curvature="0"
         id="path100"
         style="fill:#d3d2d2;fill-opacity:1;fill-rule:nonzero;stroke:none"
         d="m 1489.78,3596.02 c 55.02,-45.8 90.05,-114.79 90.05,-191.96 0,-137.83 -111.72,-249.58 -249.58,-249.58 -42.48,0 -82.47,10.63 -117.53,29.35 43.29,-35.99 98.87,-57.62 159.56,-57.62 137.81,0 249.57,111.74 249.57,249.58 0,95.34 -53.48,178.19 -132.07,220.23" />
      <path
         inkscape:connector-curvature="0"
         id="path102"
         style="fill:#36ab9c;fill-opacity:1;fill-rule:nonzero;stroke:none"
         d="m 1526.01,3375.79 c 0,-84.92 -68.84,-153.74 -153.73,-153.74 -84.94,0 -153.77,68.82 -153.77,153.74 0,84.89 68.83,153.74 153.77,153.74 84.89,0 153.73,-68.85 153.73,-153.74" />
      <path
         inkscape:connector-curvature="0"
         id="path104"
         style="fill:#80cc28;fill-opacity:1;fill-rule:nonzero;stroke:none"
         d="m 1526.01,3375.79 c 0,-84.92 -68.84,-153.74 -153.73,-153.74 -84.94,0 -153.77,68.82 -153.77,153.74 0,84.89 68.83,153.74 153.77,153.74 84.89,0 153.73,-68.85 153.73,-153.74" />
      <path
         inkscape:connector-curvature="0"
         id="path106"
         style="fill:#351f17;fill-opacity:1;fill-rule:nonzero;stroke:none"
         d="m 1457.08,3375.79 c 0,-46.86 -37.98,-84.83 -84.8,-84.83 -46.84,0 -84.83,37.97 -84.83,84.83 0,46.83 37.99,84.8 84.83,84.8 46.82,0 84.8,-37.97 84.8,-84.8" />
      <path
         inkscape:connector-curvature="0"
         id="path108"
         style="fill:#ffffff;fill-opacity:1;fill-rule:nonzero;stroke:none"
         d="m 1378.45,3469.49 c 0,-36.13 -29.28,-65.43 -65.43,-65.43 -36.13,0 -65.41,29.3 -65.41,65.43 0,36.14 29.28,65.42 65.41,65.42 36.15,0 65.43,-29.28 65.43,-65.42" />
      <path
         inkscape:connector-curvature="0"
         id="path110"
         style="fill:#ffffff;fill-opacity:1;fill-rule:nonzero;stroke:none"
         d="m 1462.45,3308.48 c 0,-15.61 -12.65,-28.28 -28.26,-28.28 -15.62,0 -28.26,12.67 -28.26,28.28 0,15.6 12.64,28.27 28.26,28.27 15.61,0 28.26,-12.67 28.26,-28.27" />
      <path
         inkscape:connector-curvature="0"
         id="path112"
         style="fill:#f9a8d8;fill-opacity:1;fill-rule:nonzero;stroke:none"
         d="m 1080.57,2636.35 c -226.949,0 -411.574,134.94 -411.574,300.8 0,21.6 0,87.32 59.332,87.32 23.137,0 51.848,-10.38 88.207,-23.52 61.942,-22.41 146.785,-53.08 257.245,-53.08 110.27,0 197.89,30.33 261.86,52.49 38.91,13.48 69.65,24.11 94.28,24.11 62.2,0 62.2,-65.72 62.2,-87.32 0,-165.86 -184.63,-300.8 -411.55,-300.8" />
      <path
         inkscape:connector-curvature="0"
         id="path114"
         style="fill:#351f17;fill-opacity:1;fill-rule:nonzero;stroke:none"
         d="m 1429.93,3045.9 c -28.24,0 -60.49,-11.17 -101.31,-25.31 -62.53,-21.65 -148.17,-51.3 -254.84,-51.3 -106.702,0 -189.51,29.94 -249.96,51.8 -38.324,13.86 -68.593,24.81 -95.492,24.81 -36.832,0 -80.75,-18.87 -80.75,-108.75 0,-88.82 46.942,-171.35 132.18,-232.39 80.898,-57.92 187.734,-89.83 300.812,-89.83 113.07,0 219.9,31.91 300.8,89.83 85.22,61.04 132.17,143.57 132.17,232.39 0,33.23 -5.49,57.05 -17.28,74.95 -10.16,15.42 -29.9,33.8 -66.33,33.8 m 0,-42.84 c 27.1,0 40.76,-16.75 40.76,-65.91 0,-154.3 -174.67,-279.38 -390.12,-279.38 -215.461,0 -390.148,125.08 -390.148,279.38 0,49.15 12.488,65.91 37.906,65.91 54.399,0 168.012,-76.62 345.452,-76.62 178.73,0 298.18,76.62 356.15,76.62" />
      <path
         inkscape:connector-curvature="0"
         id="path116"
         style="fill:#ffffff;fill-opacity:1;fill-rule:nonzero;stroke:none"
         d="m 1080.55,2840.97 c -21.29,0 -39.26,4.96 -52.63,14.23 -11.06,-6.05 -24.6,-9.18 -40.135,-9.18 -4.472,0 -9.14,0.27 -13.879,0.79 -21.211,2.31 -38.601,9.2 -50.918,19.94 -8.699,-3.59 -18.613,-5.42 -29.453,-5.42 -7.969,0 -16.472,0.98 -25.281,2.95 -20.957,4.64 -37.59,13.44 -48.711,25.51 -6.25,-1.8 -12.969,-2.72 -20.039,-2.72 -10.91,0 -22.695,2.14 -35.012,6.36 -25.984,8.83 -44.16,23.41 -52.547,42.13 -4.992,11.17 -8.859,29.42 1.121,52.99 3.997,9.19 9.336,18.18 15.957,26.87 4.102,5.38 10.442,8.45 17.043,8.45 1.434,0 2.879,-0.15 4.317,-0.44 18.555,-3.82 40.586,-11.79 66.094,-21.02 61.961,-22.41 146.804,-53.1 257.303,-53.1 110.26,0 197.87,30.33 261.83,52.49 29.24,10.12 54.51,18.87 75.42,22.39 1.19,0.2 2.37,0.3 3.55,0.3 6.58,0 12.87,-3.04 16.96,-8.35 6.89,-8.92 12.42,-18.15 16.43,-27.44 10.07,-23.71 6.21,-41.96 1.21,-53.14 -8.37,-18.72 -26.55,-33.3 -52.58,-42.15 -12.28,-4.2 -24.06,-6.34 -34.97,-6.34 -7.07,0 -13.79,0.93 -20.05,2.72 -11.11,-12.07 -27.74,-20.87 -48.71,-25.52 -8.8,-1.96 -17.31,-2.94 -25.29,-2.94 -10.83,0 -20.74,1.83 -29.45,5.43 -12.33,-10.75 -29.72,-17.65 -50.94,-19.95 -4.7,-0.52 -9.37,-0.79 -13.84,-0.79 -15.54,0 -29.08,3.13 -40.15,9.19 -13.36,-9.28 -31.31,-14.24 -52.54,-14.24 h -0.11" />
      <path
         inkscape:connector-curvature="0"
         id="path118"
         style="fill:#351f17;fill-opacity:1;fill-rule:nonzero;stroke:none"
         d="m 1414.58,3045.91 c -2.36,0 -4.74,-0.2 -7.11,-0.6 -22.67,-3.81 -48.71,-12.83 -78.87,-23.28 -62.53,-21.65 -148.16,-51.31 -254.82,-51.31 -106.737,0 -189.55,29.96 -250.018,51.84 -26.289,9.5 -48.996,17.71 -69.063,21.84 -2.883,0.6 -5.773,0.88 -8.633,0.88 -13.214,0 -25.878,-6.12 -34.082,-16.88 -7.668,-10.06 -13.886,-20.55 -18.496,-31.15 -13.136,-31.02 -7.832,-55.4 -1.093,-70.44 10.878,-24.29 33.437,-42.86 65.222,-53.68 14.492,-4.96 28.606,-7.49 41.887,-7.49 4.609,0 9.101,0.32 13.484,0.92 13.235,-10.79 30.344,-18.71 50.645,-23.2 10.305,-2.3 20.371,-3.46 29.914,-3.46 8.973,0 17.5,1.03 25.488,3.03 14.258,-9.22 32.039,-15.19 52.598,-17.42 5.43,-0.6 10.898,-0.91 16.152,-0.91 14.045,0 27.065,2.25 38.675,6.56 15.13,-7.61 33.39,-11.6 54,-11.6 20.72,0 39.04,3.99 54.2,11.61 11.6,-4.32 24.63,-6.57 38.69,-6.57 5.25,0 10.71,0.31 16.23,0.93 20.51,2.22 38.26,8.18 52.51,17.4 7.98,-2 16.51,-3.03 25.5,-3.03 9.53,0 19.61,1.16 29.94,3.46 20.29,4.5 37.4,12.42 50.61,23.2 4.39,-0.6 8.88,-0.91 13.49,-0.91 13.27,0 27.38,2.52 41.94,7.5 31.73,10.8 54.29,29.37 65.17,53.66 6.73,15.06 12.03,39.45 -0.99,70.12 -4.85,11.19 -11.27,21.95 -19.24,32.29 -8.19,10.62 -20.78,16.69 -33.93,16.69 z m 0,-42.85 c 5.62,-7.28 10.36,-15.08 13.73,-22.87 14.24,-33.54 -6.53,-55.58 -38.61,-66.5 -9.72,-3.32 -19.26,-5.2 -28.07,-5.2 -10.66,0 -20.26,2.74 -27.83,8.97 -5.86,-16.91 -23.57,-27.4 -45.57,-32.28 -7.13,-1.58 -14.08,-2.44 -20.64,-2.44 -13.71,0 -25.74,3.73 -34.14,12.41 -7.66,-16.15 -26.29,-24.62 -48.58,-27.05 -3.92,-0.43 -7.77,-0.66 -11.52,-0.66 -17.51,0 -32.68,4.93 -41.68,16.56 -9.3,-15.2 -28.67,-21.6 -51,-21.6 h -0.1 -0.11 c -22.33,0 -41.72,6.41 -51.03,21.6 -8.98,-11.63 -24.15,-16.56 -41.645,-16.56 -3.75,0 -7.597,0.23 -11.523,0.66 -22.305,2.43 -40.957,10.9 -48.574,27.05 -8.399,-8.68 -20.45,-12.41 -34.141,-12.41 -6.582,0 -13.535,0.86 -20.645,2.44 -21.992,4.88 -39.707,15.37 -45.586,32.28 -7.558,-6.23 -17.148,-8.97 -27.812,-8.97 -8.82,0 -18.359,1.88 -28.078,5.2 -32.071,10.92 -52.84,32.96 -38.633,66.5 3.281,7.56 7.844,15.12 13.273,22.25 59.559,-12.25 167.676,-74.56 327.714,-74.56 164.22,0 278.36,64.68 340.8,75.18" />
      <path
         inkscape:connector-curvature="0"
         id="path120"
         style="fill:#d3d2d2;fill-opacity:1;fill-rule:nonzero;stroke:none"
         d="m 843.262,2958.76 c -16.141,-18.47 -31.453,-38.53 -52.43,-49.7 14.102,-1.78 26.934,0.53 36.484,8.4 4.082,-11.75 13.907,-20.39 26.875,-26.21 -7.812,21.88 -11.64,45.02 -10.929,67.51" />
      <path
         inkscape:connector-curvature="0"
         id="path122"
         style="fill:#d3d2d2;fill-opacity:1;fill-rule:nonzero;stroke:none"
         d="m 936.965,2921.58 c -5.313,-11.35 -11.699,-23.07 -19.465,-33.81 3.781,1.88 7.219,4.32 10.188,7.38 2.167,-4.59 5.273,-8.55 9.082,-11.96 -1.309,12.41 -1.016,25.3 0.195,38.39" />
      <path
         inkscape:connector-curvature="0"
         id="path124"
         style="fill:#d3d2d2;fill-opacity:1;fill-rule:nonzero;stroke:none"
         d="m 1011.96,2871.44 c 7.03,2.7 13.05,6.8 17.47,12.56 2.42,-3.92 5.5,-7.26 9.12,-10.04 -2.01,12.46 -2.39,25.3 -3.05,36.32 -6.47,-13.88 -14.04,-27.22 -23.54,-38.84" />
      <path
         inkscape:connector-curvature="0"
         id="path126"
         style="fill:#d3d2d2;fill-opacity:1;fill-rule:nonzero;stroke:none"
         d="m 1124.33,2875.43 c 2.85,2.46 5.35,5.3 7.34,8.57 5.53,-7.16 13.41,-11.76 22.71,-14.26 -8.54,13.38 -14.21,29.43 -17.1,43.78 -7.07,-11.51 -8.83,-25.46 -12.95,-38.09" />
      <path
         inkscape:connector-curvature="0"
         id="path128"
         style="fill:#d3d2d2;fill-opacity:1;fill-rule:nonzero;stroke:none"
         d="m 1218.19,2878.52 c 6.71,4.24 12,9.74 15.26,16.63 6.68,-6.91 15.68,-10.66 25.97,-11.9 -8.26,10.63 -14.61,23.13 -21.97,35.11 -7.03,-13.04 -12.81,-26.71 -19.26,-39.84" />
      <path
         inkscape:connector-curvature="0"
         id="path130"
         style="fill:#d3d2d2;fill-opacity:1;fill-rule:nonzero;stroke:none"
         d="m 1329.52,2945.83 c 3,-13.92 1.08,-28.44 -3.85,-41.67 3.62,3.89 6.39,8.31 8.13,13.3 7.71,-6.36 17.57,-9.06 28.48,-8.97 -13.79,10.36 -27.45,20.37 -32.76,37.34" />
      <path
         inkscape:connector-curvature="0"
         id="path132"
         style="fill:#f36191;fill-opacity:1;fill-rule:nonzero;stroke:none"
         d="m 1080.57,2642.05 c -84.593,0 -179.015,22.03 -240.558,56.13 -5.723,3.17 -8.879,9.53 -7.949,16.01 0.933,6.46 5.781,11.68 12.156,13.09 63.82,14.17 154.386,22.97 236.351,22.97 81.97,0 172.53,-8.8 236.32,-22.97 6.38,-1.41 11.23,-6.63 12.16,-13.09 0.93,-6.48 -2.22,-12.84 -7.95,-16.01 -61.54,-34.1 -155.95,-56.13 -240.53,-56.13" />
      <path
         inkscape:connector-curvature="0"
         id="path134"
         style="fill:#351f17;fill-opacity:1;fill-rule:nonzero;stroke:none"
         d="m 1080.57,2765.97 c -83.031,0 -174.894,-8.94 -239.757,-23.33 -12.754,-2.84 -22.442,-13.27 -24.309,-26.21 -1.875,-12.92 4.445,-25.67 15.891,-32.01 63.699,-35.29 161.113,-58.09 248.175,-58.09 87.04,0 184.45,22.8 248.15,58.09 11.45,6.34 17.77,19.09 15.89,32.01 -1.87,12.94 -11.55,23.37 -24.31,26.21 -64.84,14.39 -156.7,23.33 -239.73,23.33 m 0,-31.44 c 78.35,0 169.24,-8.46 232.92,-22.6 -60.57,-33.55 -152.7,-54.16 -232.92,-54.16 -80.26,0 -172.375,20.61 -232.941,54.16 63.691,14.14 154.551,22.6 232.941,22.6" />
      <g
         id="g136">
        <g
           clip-path="url(#clipPath142)"
           id="g138">
          <path
             inkscape:connector-curvature="0"
             id="path144"
             style="fill:#b54769;fill-opacity:1;fill-rule:nonzero;stroke:none"
             d="m 1072.87,2657.77 h 16.0898 v 26.6914 H 1072.87 Z" />
        </g>
      </g>
      <path
         inkscape:connector-curvature="0"
         id="path146"
         style="fill:#2a1811;fill-opacity:1;fill-rule:nonzero;stroke:none"
         d="m 1080.57,2657.77 c -2.56,0 -5.13,0.02 -7.7,0.06 v 0 c 2.58,-0.04 5.14,-0.06 7.7,-0.06 2.29,0 4.58,0.02 6.89,0.05 -2.3,-0.03 -4.6,-0.05 -6.89,-0.05" />
      <path
         inkscape:connector-curvature="0"
         id="path148"
         style="fill:#351f17;fill-opacity:1;fill-rule:nonzero;stroke:none"
         d="m 2682.68,1246.75 c 0.01,49.58 20.04,94.28 52.54,126.8 32.52,32.49 77.24,52.53 126.83,52.54 49.6,-0.01 94.3,-20.05 126.82,-52.54 32.49,-32.52 52.52,-77.22 52.53,-126.8 0,-11.57 9.38,-20.94 20.94,-20.94 11.57,0 20.95,9.37 20.95,20.94 -0.02,122.17 -99.04,221.21 -221.24,221.22 -122.2,-0.01 -221.24,-99.05 -221.25,-221.22 0,-11.57 9.37,-20.94 20.94,-20.94 11.56,0 20.94,9.37 20.94,20.94" />
      <path
         inkscape:connector-curvature="0"
         id="path150"
         style="fill:#351f17;fill-opacity:1;fill-rule:nonzero;stroke:none"
         d="m 3257.5,1246.75 c 0.01,49.58 20.05,94.28 52.54,126.8 32.53,32.49 77.24,52.53 126.84,52.54 49.6,-0.01 94.31,-20.05 126.83,-52.54 32.49,-32.52 52.52,-77.22 52.53,-126.8 0,-11.57 9.37,-20.94 20.94,-20.94 11.56,0 20.94,9.37 20.94,20.94 -0.01,122.17 -99.03,221.21 -221.24,221.22 -122.2,-0.01 -221.24,-99.05 -221.26,-221.22 0,-11.57 9.38,-20.94 20.94,-20.94 11.57,0 20.94,9.37 20.94,20.94" />
      <path
         inkscape:connector-curvature="0"
         id="path152"
         style="fill:#f9a8d8;fill-opacity:1;fill-rule:nonzero;stroke:none"
         d="m 3155.18,715.371 c -261.56,0 -411.57,86.379 -411.57,236.957 0,21.602 0,87.332 59.34,87.332 23.13,0 51.84,-10.38 88.19,-23.53 61.95,-22.4 146.79,-53.079 257.26,-53.079 110.26,0 197.87,30.34 261.83,52.499 38.92,13.46 69.66,24.11 94.29,24.11 62.2,0 62.2,-65.73 62.2,-87.332 0,-150.578 -150,-236.957 -411.54,-236.957" />
      <path
         inkscape:connector-curvature="0"
         id="path154"
         style="fill:#351f17;fill-opacity:1;fill-rule:nonzero;stroke:none"
         d="m 3504.53,1061.08 v 0 c -28.24,0 -60.49,-11.16 -101.31,-25.3 -62.52,-21.65 -148.16,-51.311 -254.82,-51.311 -106.71,0 -189.51,29.941 -249.97,51.811 -38.32,13.85 -68.59,24.8 -95.48,24.8 -36.84,0 -80.75,-18.86 -80.75,-108.752 0,-164.199 157.81,-258.379 432.98,-258.379 275.15,0 432.96,94.18 432.96,258.379 0,33.231 -5.49,57.052 -17.28,74.952 -10.16,15.42 -29.9,33.8 -66.33,33.8 z m 0,-42.84 c 27.1,0 40.76,-16.75 40.76,-65.912 0,-154.289 -174.66,-215.527 -390.11,-215.527 -215.5,0 -390.14,61.238 -390.14,215.527 0,49.152 12.49,65.912 37.91,65.912 54.38,0 168,-76.611 345.45,-76.611 178.72,0 298.16,76.611 356.13,76.611" />
      <path
         inkscape:connector-curvature="0"
         id="path156"
         style="fill:#ffffff;fill-opacity:1;fill-rule:nonzero;stroke:none"
         d="m 3155.15,856.148 c -21.3,0 -39.27,4.954 -52.63,14.231 -11.07,-6.051 -24.63,-9.188 -40.19,-9.188 -4.45,0 -9.09,0.258 -13.79,0.77 -21.24,2.34 -38.63,9.238 -50.94,19.957 -8.7,-3.578 -18.62,-5.43 -29.45,-5.43 -7.98,0 -16.49,1 -25.3,2.961 -20.96,4.66 -37.59,13.461 -48.7,25.512 -6.25,-1.801 -12.96,-2.731 -20.02,-2.731 -10.92,0 -22.71,2.149 -35.04,6.379 -25.98,8.852 -44.16,23.422 -52.54,42.129 -5,11.16 -8.85,29.422 1.13,52.992 4.03,9.28 9.37,18.26 15.95,26.88 4.1,5.38 10.43,8.44 17.03,8.44 1.44,0 2.88,-0.14 4.32,-0.44 18.56,-3.82 40.6,-11.8 66.11,-21.02 61.96,-22.418 146.81,-53.11 257.31,-53.11 110.23,0 197.84,30.34 261.81,52.49 29.25,10.14 54.52,18.89 75.43,22.4 1.19,0.21 2.37,0.31 3.55,0.31 6.58,0 12.87,-3.04 16.96,-8.35 6.87,-8.91 12.39,-18.14 16.42,-27.45 10.06,-23.7 6.21,-41.95 1.22,-53.11 -8.37,-18.719 -26.55,-33.301 -52.59,-42.168 -12.28,-4.211 -24.06,-6.364 -34.98,-6.364 -7.06,0 -13.79,0.93 -20.04,2.742 -11.11,-12.07 -27.73,-20.878 -48.71,-25.531 -8.8,-1.961 -17.31,-2.961 -25.29,-2.961 -10.84,0 -20.75,1.852 -29.46,5.43 -12.32,-10.719 -29.7,-17.617 -50.9,-19.949 -4.73,-0.52 -9.38,-0.778 -13.82,-0.778 -15.56,0 -29.11,3.137 -40.19,9.188 -13.35,-9.277 -31.29,-14.231 -52.48,-14.231 h -0.18" />
      <path
         inkscape:connector-curvature="0"
         id="path158"
         style="fill:#351f17;fill-opacity:1;fill-rule:nonzero;stroke:none"
         d="m 3489.2,1061.09 c -2.36,0 -4.75,-0.19 -7.12,-0.59 -22.68,-3.81 -48.72,-12.84 -78.89,-23.28 -62.53,-21.67 -148.16,-51.322 -254.79,-51.322 -106.74,0 -189.55,29.962 -250.02,51.832 -26.29,9.51 -49,17.73 -69.08,21.86 -2.88,0.59 -5.77,0.88 -8.64,0.88 -13.2,0 -25.86,-6.11 -34.06,-16.87 -7.63,-10 -13.85,-20.48 -18.49,-31.15 -13.15,-31.04 -7.86,-55.411 -1.12,-70.462 10.88,-24.289 33.44,-42.84 65.24,-53.668 14.49,-4.968 28.61,-7.5 41.89,-7.5 4.61,0 9.1,0.301 13.48,0.91 13.22,-10.769 30.31,-18.679 50.6,-23.199 10.34,-2.293 20.41,-3.453 29.95,-3.453 8.98,0 17.51,1.024 25.49,3.024 14.25,-9.204 32.01,-15.172 52.54,-17.434 5.5,-0.59 10.93,-0.898 16.15,-0.898 14.06,0 27.11,2.25 38.72,6.57 15.12,-7.61 33.38,-11.61 53.97,-11.61 20.74,0 39.08,4 54.24,11.622 11.62,-4.332 24.67,-6.582 38.75,-6.582 5.21,0 10.62,0.308 16.11,0.898 20.53,2.262 38.3,8.23 52.54,17.441 7.99,-2.007 16.52,-3.031 25.52,-3.031 9.54,0 19.62,1.16 29.95,3.461 20.29,4.512 37.39,12.43 50.6,23.211 4.39,-0.621 8.89,-0.922 13.49,-0.922 13.29,0 27.4,2.531 41.96,7.524 31.74,10.808 54.3,29.367 65.16,53.679 6.74,15.047 12.03,39.418 -1,70.089 -4.84,11.21 -11.26,21.98 -19.21,32.28 -8.2,10.63 -20.79,16.69 -33.93,16.69 z m -0.01,-42.84 c 5.61,-7.28 10.36,-15.12 13.72,-22.879 14.25,-33.562 -6.56,-55.582 -38.61,-66.492 -9.72,-3.328 -19.26,-5.211 -28.08,-5.211 -10.65,0 -20.26,2.742 -27.83,8.98 -5.85,-16.929 -23.56,-27.41 -45.56,-32.289 -7.12,-1.578 -14.08,-2.437 -20.65,-2.437 -13.7,0 -25.75,3.726 -34.13,12.398 -7.66,-16.129 -26.29,-24.609 -48.58,-27.058 -3.9,-0.434 -7.74,-0.641 -11.46,-0.641 -17.55,0 -32.72,4.91 -41.72,16.559 -9.32,-15.192 -28.66,-21.602 -50.96,-21.602 h -0.15 -0.16 c -22.31,0 -41.68,6.41 -50.98,21.602 -9,-11.649 -24.18,-16.559 -41.71,-16.559 -3.74,0 -7.56,0.207 -11.47,0.641 -22.31,2.449 -40.96,10.929 -48.57,27.058 -8.4,-8.672 -20.44,-12.398 -34.14,-12.398 -6.58,0 -13.54,0.859 -20.65,2.437 -21.98,4.879 -39.73,15.36 -45.58,32.289 -7.55,-6.238 -17.14,-8.988 -27.8,-8.988 -8.82,0 -18.37,1.891 -28.08,5.219 -32.07,10.91 -52.86,32.93 -38.64,66.492 3.28,7.549 7.83,15.139 13.26,22.259 59.57,-12.25 167.68,-74.579 327.74,-74.579 164.18,0 278.35,64.689 340.79,75.199" />
      <path
         inkscape:connector-curvature="0"
         id="path160"
         style="fill:#d3d2d2;fill-opacity:1;fill-rule:nonzero;stroke:none"
         d="m 2917.87,973.93 c -16.15,-18.45 -31.45,-38.532 -52.43,-49.7 14.09,-1.761 26.92,0.54 36.48,8.418 4.08,-11.757 13.9,-20.386 26.88,-26.238 -7.81,21.891 -11.65,45.031 -10.93,67.52" />
      <path
         inkscape:connector-curvature="0"
         id="path162"
         style="fill:#d3d2d2;fill-opacity:1;fill-rule:nonzero;stroke:none"
         d="m 3011.57,936.77 c -5.31,-11.372 -11.73,-23.09 -19.46,-33.821 3.78,1.891 7.19,4.321 10.18,7.371 2.16,-4.59 5.27,-8.55 9.08,-11.949 -1.33,12.418 -1.01,25.309 0.2,38.399" />
      <path
         inkscape:connector-curvature="0"
         id="path164"
         style="fill:#d3d2d2;fill-opacity:1;fill-rule:nonzero;stroke:none"
         d="m 3086.56,886.629 c 7.03,2.711 13.05,6.781 17.48,12.551 2.42,-3.942 5.49,-7.27 9.12,-10.051 -2.01,12.461 -2.39,25.289 -3.05,36.332 -6.5,-13.871 -14.02,-27.231 -23.55,-38.832" />
      <path
         inkscape:connector-curvature="0"
         id="path166"
         style="fill:#d3d2d2;fill-opacity:1;fill-rule:nonzero;stroke:none"
         d="m 3198.91,890.602 c 2.88,2.449 5.38,5.308 7.38,8.578 5.51,-7.16 13.4,-11.77 22.69,-14.282 -8.53,13.383 -14.21,29.442 -17.09,43.801 -7.09,-11.508 -8.84,-25.469 -12.98,-38.097" />
      <path
         inkscape:connector-curvature="0"
         id="path168"
         style="fill:#d3d2d2;fill-opacity:1;fill-rule:nonzero;stroke:none"
         d="m 3292.79,893.691 c 6.68,4.25 11.98,9.75 15.26,16.629 6.65,-6.879 15.68,-10.652 25.98,-11.89 -8.27,10.629 -14.62,23.121 -22,35.101 -7,-13.031 -12.78,-26.722 -19.24,-39.84" />
      <path
         inkscape:connector-curvature="0"
         id="path170"
         style="fill:#d3d2d2;fill-opacity:1;fill-rule:nonzero;stroke:none"
         d="m 3404.14,961.012 c 2.99,-13.922 1.06,-28.422 -3.87,-41.672 3.62,3.871 6.39,8.308 8.12,13.308 7.72,-6.347 17.59,-9.089 28.49,-8.968 -13.79,10.34 -27.46,20.351 -32.74,37.332" />
      <path
         inkscape:connector-curvature="0"
         id="path172"
         style="fill:#ffffff;fill-opacity:1;fill-rule:nonzero;stroke:none"
         d="m 2868.85,3226.62 c -147.16,0 -266.88,119.73 -266.88,266.9 0,147.17 119.72,266.89 266.88,266.89 147.18,0 266.9,-119.72 266.9,-266.89 0,-147.17 -119.72,-266.9 -266.9,-266.9" />
      <path
         inkscape:connector-curvature="0"
         id="path174"
         style="fill:#351f17;fill-opacity:1;fill-rule:nonzero;stroke:none"
         d="m 2868.85,3776.64 c -156.1,0 -283.11,-127 -283.11,-283.12 0,-156.12 127.01,-283.13 283.11,-283.13 156.12,0 283.13,127.01 283.13,283.13 0,156.12 -127.01,283.12 -283.13,283.12 z m 0,-32.45 c 138.47,0 250.68,-112.24 250.68,-250.67 0,-138.44 -112.21,-250.68 -250.68,-250.68 -138.43,0 -250.66,112.24 -250.66,250.68 0,138.43 112.23,250.67 250.66,250.67" />
      <path
         inkscape:connector-curvature="0"
         id="path176"
         style="fill:#d3d2d2;fill-opacity:1;fill-rule:nonzero;stroke:none"
         d="m 2986.89,3714.7 c 55.27,-45.98 90.44,-115.28 90.44,-192.78 0,-138.44 -112.22,-250.68 -250.66,-250.68 -42.67,0 -82.85,10.69 -118.03,29.49 43.44,-36.13 99.29,-57.89 160.21,-57.89 138.47,0 250.68,112.24 250.68,250.68 0,95.76 -53.72,178.97 -132.64,221.18" />
      <path
         inkscape:connector-curvature="0"
         id="path178"
         style="fill:#36ab9c;fill-opacity:1;fill-rule:nonzero;stroke:none"
         d="m 2951.5,3451.59 c 0,-85.27 -69.13,-154.39 -154.42,-154.39 -85.28,0 -154.39,69.12 -154.39,154.39 0,85.29 69.11,154.41 154.39,154.41 85.29,0 154.42,-69.12 154.42,-154.41" />
      <path
         inkscape:connector-curvature="0"
         id="path180"
         style="fill:#51ade5;fill-opacity:1;fill-rule:nonzero;stroke:none"
         d="m 2951.5,3451.59 c 0,-85.27 -69.13,-154.39 -154.42,-154.39 -85.28,0 -154.39,69.12 -154.39,154.39 0,85.29 69.11,154.41 154.39,154.41 85.29,0 154.42,-69.12 154.42,-154.41" />
      <path
         inkscape:connector-curvature="0"
         id="path182"
         style="fill:#351f17;fill-opacity:1;fill-rule:nonzero;stroke:none"
         d="m 2882.28,3451.59 c 0,-47.04 -38.15,-85.16 -85.2,-85.16 -47.04,0 -85.18,38.12 -85.18,85.16 0,47.06 38.14,85.19 85.18,85.19 47.05,0 85.2,-38.13 85.2,-85.19" />
      <path
         inkscape:connector-curvature="0"
         id="path184"
         style="fill:#ffffff;fill-opacity:1;fill-rule:nonzero;stroke:none"
         d="m 2803.3,3545.7 c 0,-36.28 -29.4,-65.7 -65.71,-65.7 -36.28,0 -65.7,29.42 -65.7,65.7 0,36.3 29.42,65.71 65.7,65.71 36.31,0 65.71,-29.41 65.71,-65.71" />
      <path
         inkscape:connector-curvature="0"
         id="path186"
         style="fill:#ffffff;fill-opacity:1;fill-rule:nonzero;stroke:none"
         d="m 2887.69,3383.98 c 0,-15.65 -12.73,-28.37 -28.4,-28.37 -15.69,0 -28.38,12.72 -28.38,28.37 0,15.69 12.69,28.41 28.38,28.41 15.67,0 28.4,-12.72 28.4,-28.41" />
      <path
         inkscape:connector-curvature="0"
         id="path188"
         style="fill:#ffffff;fill-opacity:1;fill-rule:nonzero;stroke:none"
         d="m 3456.2,3226.62 c -147.17,0 -266.88,119.73 -266.88,266.9 0,147.17 119.71,266.89 266.88,266.89 147.18,0 266.91,-119.72 266.91,-266.89 0,-147.17 -119.73,-266.9 -266.91,-266.9" />
      <path
         inkscape:connector-curvature="0"
         id="path190"
         style="fill:#351f17;fill-opacity:1;fill-rule:nonzero;stroke:none"
         d="m 3456.2,3776.64 c -156.11,0 -283.11,-127 -283.11,-283.12 0,-156.12 127,-283.13 283.11,-283.13 156.13,0 283.14,127.01 283.14,283.13 0,156.12 -127.01,283.12 -283.14,283.12 z m 0,-32.45 c 138.45,0 250.69,-112.24 250.69,-250.67 0,-138.44 -112.24,-250.68 -250.69,-250.68 -138.44,0 -250.66,112.24 -250.66,250.68 0,138.43 112.22,250.67 250.66,250.67" />
      <path
         inkscape:connector-curvature="0"
         id="path192"
         style="fill:#d3d2d2;fill-opacity:1;fill-rule:nonzero;stroke:none"
         d="m 3574.23,3714.7 c 55.27,-45.98 90.47,-115.28 90.47,-192.78 0,-138.44 -112.23,-250.68 -250.67,-250.68 -42.67,0 -82.86,10.69 -118.03,29.49 43.44,-36.13 99.28,-57.89 160.2,-57.89 138.45,0 250.69,112.24 250.69,250.68 0,95.76 -53.74,178.97 -132.66,221.18" />
      <path
         inkscape:connector-curvature="0"
         id="path194"
         style="fill:#51ade5;fill-opacity:1;fill-rule:nonzero;stroke:none"
         d="m 3644.41,3585.52 c 0,-85.28 -69.11,-154.4 -154.38,-154.4 -85.28,0 -154.43,69.12 -154.43,154.4 0,85.27 69.15,154.41 154.43,154.41 85.27,0 154.38,-69.14 154.38,-154.41" />
      <path
         inkscape:connector-curvature="0"
         id="path196"
         style="fill:#351f17;fill-opacity:1;fill-rule:nonzero;stroke:none"
         d="m 3575.21,3585.52 c 0,-47.06 -38.14,-85.17 -85.18,-85.17 -47.04,0 -85.2,38.11 -85.2,85.17 0,47.03 38.16,85.17 85.2,85.17 47.04,0 85.18,-38.14 85.18,-85.17" />
      <path
         inkscape:connector-curvature="0"
         id="path198"
         style="fill:#ffffff;fill-opacity:1;fill-rule:nonzero;stroke:none"
         d="m 3496.22,3679.63 c 0,-36.29 -29.4,-65.72 -65.7,-65.72 -36.27,0 -65.7,29.43 -65.7,65.72 0,36.29 29.43,65.71 65.7,65.71 36.3,0 65.7,-29.42 65.7,-65.71" />
      <path
         inkscape:connector-curvature="0"
         id="path200"
         style="fill:#ffffff;fill-opacity:1;fill-rule:nonzero;stroke:none"
         d="m 3580.61,3517.92 c 0,-15.69 -12.71,-28.39 -28.39,-28.39 -15.69,0 -28.4,12.7 -28.4,28.39 0,15.68 12.71,28.39 28.4,28.39 15.68,0 28.39,-12.71 28.39,-28.39" />
      <path
         inkscape:connector-curvature="0"
         id="path202"
         style="fill:#f9a8d8;fill-opacity:1;fill-rule:nonzero;stroke:none"
         d="m 3163.24,2750.87 c -227.92,0 -413.34,135.53 -413.34,302.13 0,21.69 0,87.69 59.58,87.69 23.23,0 52.07,-10.43 88.58,-23.63 62.21,-22.51 147.43,-53.33 258.36,-53.33 110.75,0 198.75,30.48 262.99,52.73 39.1,13.54 69.98,24.23 94.72,24.23 62.45,0 62.45,-66 62.45,-87.69 0,-166.6 -185.42,-302.13 -413.34,-302.13" />
      <path
         inkscape:connector-curvature="0"
         id="path204"
         style="fill:#351f17;fill-opacity:1;fill-rule:nonzero;stroke:none"
         d="m 3514.14,3162.21 v -43.03 43.03 h -0.02 c -28.36,0 -60.73,-11.23 -101.73,-25.41 -62.81,-21.76 -148.84,-51.56 -255.97,-51.56 -107.16,0 -190.32,30.08 -251.04,52.05 -38.49,13.92 -68.88,24.92 -95.9,24.92 -36.99,0 -81.09,-18.95 -81.09,-109.21 0,-89.21 47.15,-172.11 132.74,-233.41 81.25,-58.19 188.55,-90.24 302.11,-90.24 113.57,0 220.87,32.05 302.12,90.24 85.6,61.3 132.74,144.2 132.74,233.41 0,33.37 -5.51,57.28 -17.35,75.26 -10.19,15.49 -30.03,33.95 -66.61,33.95 m -0.01,-43.03 c 27.23,0.01 40.94,-16.81 40.94,-66.18 0,-154.98 -175.43,-280.62 -391.83,-280.62 -216.38,0 -391.82,125.64 -391.82,280.62 0,49.36 12.54,66.18 38.06,66.18 54.62,0 168.73,-76.96 346.94,-76.96 179.51,0 299.49,76.95 357.71,76.96" />
      <path
         inkscape:connector-curvature="0"
         id="path206"
         style="fill:#ffffff;fill-opacity:1;fill-rule:nonzero;stroke:none"
         d="m 3163.2,2956.4 c -21.38,0 -39.42,4.97 -52.83,14.27 -11.1,-6.07 -24.7,-9.22 -40.3,-9.22 -4.5,0 -9.2,0.27 -13.97,0.79 -21.28,2.32 -38.74,9.25 -51.1,20.03 -8.74,-3.6 -18.69,-5.45 -29.56,-5.45 -8.02,0 -16.56,1 -25.43,2.96 -21.05,4.68 -37.75,13.53 -48.92,25.64 -6.27,-1.81 -13.02,-2.74 -20.12,-2.74 -10.96,0 -22.79,2.14 -35.16,6.37 -26.11,8.9 -44.37,23.55 -52.78,42.35 -5.02,11.22 -8.89,29.56 1.16,53.22 3.91,9.08 9.27,18.12 15.99,26.95 4.11,5.41 10.47,8.49 17.11,8.49 1.44,0 2.89,-0.15 4.33,-0.44 18.65,-3.83 40.8,-11.84 66.44,-21.12 62.21,-22.5 147.42,-53.32 258.36,-53.32 110.79,0 198.79,30.48 263.04,52.74 29.36,10.16 54.7,18.94 75.68,22.48 1.19,0.2 2.39,0.3 3.57,0.3 6.62,0 12.95,-3.06 17.06,-8.41 7.01,-9.12 12.57,-18.41 16.52,-27.61 10.06,-23.75 6.18,-42.08 1.16,-53.3 -8.42,-18.81 -26.69,-33.45 -52.82,-42.34 -12.33,-4.21 -24.16,-6.36 -35.1,-6.36 -7.1,0 -13.86,0.93 -20.14,2.74 -11.16,-12.12 -27.86,-20.96 -48.91,-25.64 -8.85,-1.96 -17.41,-2.96 -25.43,-2.96 -10.87,0 -20.83,1.85 -29.57,5.45 -12.37,-10.79 -29.83,-17.71 -51.14,-20.03 -4.72,-0.52 -9.41,-0.79 -13.91,-0.79 -15.61,0 -29.2,3.15 -40.32,9.22 -13.39,-9.3 -31.38,-14.27 -52.66,-14.27 h -0.25" />
      <path
         inkscape:connector-curvature="0"
         id="path208"
         style="fill:#351f17;fill-opacity:1;fill-rule:nonzero;stroke:none"
         d="m 3498.72,3162.22 c -2.38,0 -4.76,-0.2 -7.17,-0.6 -22.73,-3.84 -48.86,-12.89 -79.13,-23.37 -62.81,-21.76 -148.84,-51.55 -256,-51.55 -107.17,0 -190.33,30.08 -251.04,52.04 -26.42,9.55 -49.26,17.81 -69.43,21.95 -2.88,0.6 -5.78,0.88 -8.66,0.88 -13.28,0 -26.01,-6.15 -34.24,-16.98 -7.78,-10.22 -14.04,-20.79 -18.6,-31.42 -13.14,-30.94 -7.83,-55.43 -1.06,-70.54 10.91,-24.42 33.55,-43.07 65.51,-53.95 14.58,-4.98 28.75,-7.51 42.07,-7.51 4.62,0 9.14,0.31 13.54,0.92 13.27,-10.82 30.46,-18.78 50.83,-23.3 10.39,-2.32 20.52,-3.48 30.1,-3.48 9.56,0 18.07,1.13 25.59,3.03 14.31,-9.26 32.15,-15.25 52.79,-17.48 5.47,-0.61 10.97,-0.92 16.25,-0.92 14.1,0 27.19,2.26 38.83,6.58 15.17,-7.62 33.48,-11.63 54.14,-11.63 20.88,0 39.29,4.01 54.52,11.64 11.65,-4.33 24.76,-6.59 38.88,-6.59 5.27,0 10.76,0.31 16.31,0.93 20.58,2.23 38.41,8.21 52.73,17.48 8.01,-2.01 16.56,-3.04 25.59,-3.04 9.57,0 19.69,1.16 30.08,3.48 20.38,4.52 37.55,12.47 50.83,23.3 4.4,-0.61 8.93,-0.92 13.55,-0.92 13.33,0 27.49,2.53 42.1,7.53 31.86,10.84 54.53,29.47 65.46,53.89 6.76,15.11 12.1,39.61 -0.97,70.41 -4.72,11.01 -11.19,21.86 -19.29,32.4 -8.22,10.7 -20.89,16.82 -34.11,16.82 z m -0.01,-43.03 c 5.64,-7.34 10.44,-15.16 13.8,-22.99 14.28,-33.67 -6.58,-55.83 -38.81,-66.79 -9.74,-3.33 -19.32,-5.21 -28.17,-5.21 -10.7,0 -20.34,2.75 -27.94,9 -5.9,-16.98 -23.69,-27.51 -45.77,-32.41 -7.16,-1.59 -14.15,-2.45 -20.75,-2.45 -13.78,0 -25.86,3.74 -34.28,12.47 -7.68,-16.23 -26.39,-24.75 -48.77,-27.18 -3.95,-0.44 -7.81,-0.66 -11.58,-0.66 -17.6,0 -32.84,4.94 -41.86,16.63 -9.33,-15.26 -28.75,-21.68 -51.13,-21.68 h -0.21 -0.2 c -22.39,0 -41.81,6.42 -51.14,21.68 -9.02,-11.69 -24.23,-16.63 -41.83,-16.63 -3.77,0 -7.66,0.22 -11.6,0.66 -22.36,2.43 -41.1,10.95 -48.75,27.18 -8.45,-8.73 -20.53,-12.47 -34.28,-12.47 -6.61,0 -13.6,0.86 -20.76,2.45 -22.07,4.9 -39.89,15.44 -45.78,32.41 -7.6,-6.25 -17.23,-9 -27.93,-9 -8.86,0 -18.44,1.88 -28.21,5.21 -32.2,10.97 -53.07,33.12 -38.76,66.79 3.26,7.6 7.87,15.2 13.29,22.34 59.83,-12.28 168.41,-74.87 329.13,-74.87 164.94,0 279.61,64.95 342.29,75.52" />
      <path
         inkscape:connector-curvature="0"
         id="path210"
         style="fill:#d3d2d2;fill-opacity:1;fill-rule:nonzero;stroke:none"
         d="m 2924.93,3074.68 c -16.23,-18.53 -31.62,-38.7 -52.65,-49.93 14.16,-1.76 27.01,0.54 36.62,8.45 4.1,-11.81 13.96,-20.48 26.99,-26.32 -7.83,21.99 -11.71,45.21 -10.96,67.8" />
      <path
         inkscape:connector-curvature="0"
         id="path212"
         style="fill:#d3d2d2;fill-opacity:1;fill-rule:nonzero;stroke:none"
         d="m 3019.02,3037.35 c -5.32,-11.41 -11.73,-23.17 -19.56,-33.97 3.82,1.89 7.28,4.35 10.26,7.43 2.17,-4.63 5.27,-8.61 9.1,-12.03 -1.29,12.48 -1,25.42 0.2,38.57" />
      <path
         inkscape:connector-curvature="0"
         id="path214"
         style="fill:#d3d2d2;fill-opacity:1;fill-rule:nonzero;stroke:none"
         d="m 3094.36,2986.99 c 7.06,2.71 13.05,6.81 17.54,12.61 2.41,-3.93 5.5,-7.28 9.17,-10.09 -2.03,12.52 -2.43,25.43 -3.09,36.48 -6.51,-13.93 -14.07,-27.34 -23.62,-39" />
      <path
         inkscape:connector-curvature="0"
         id="path216"
         style="fill:#d3d2d2;fill-opacity:1;fill-rule:nonzero;stroke:none"
         d="m 3207.18,2990.98 c 2.88,2.49 5.4,5.36 7.4,8.62 5.57,-7.19 13.46,-11.82 22.81,-14.33 -8.57,13.45 -14.29,29.56 -17.17,43.98 -7.12,-11.57 -8.88,-25.57 -13.04,-38.27" />
      <path
         inkscape:connector-curvature="0"
         id="path218"
         style="fill:#d3d2d2;fill-opacity:1;fill-rule:nonzero;stroke:none"
         d="m 3301.46,2994.11 c 6.75,4.24 12.05,9.76 15.33,16.7 6.7,-6.94 15.75,-10.72 26.09,-11.97 -8.3,10.68 -14.67,23.24 -22.07,35.27 -7.05,-13.1 -12.86,-26.83 -19.35,-40" />
      <path
         inkscape:connector-curvature="0"
         id="path220"
         style="fill:#d3d2d2;fill-opacity:1;fill-rule:nonzero;stroke:none"
         d="m 3413.29,3061.69 c 3,-13.97 1.08,-28.54 -3.87,-41.84 3.62,3.91 6.42,8.34 8.17,13.35 7.73,-6.38 17.63,-9.1 28.58,-9 -13.84,10.42 -27.55,20.47 -32.88,37.49" />
      <path
         inkscape:connector-curvature="0"
         id="path222"
         style="fill:#f36191;fill-opacity:1;fill-rule:nonzero;stroke:none"
         d="m 3343.09,2342.39 c -63.05,0 -110.83,25.57 -131.09,70.14 -20.2,38.85 -32.89,83.89 -45.15,127.46 -2.56,9.08 -5.11,18.15 -7.74,27.19 -11.48,39.52 -25.09,80.76 -46.67,114.59 -5.93,9.06 -18.28,26.65 -33.34,40.95 -7.28,7.45 -15.02,14.01 -21.83,19.78 -12.6,10.66 -20.2,17.1 -22.14,25.85 -3.57,13.16 -1.65,26.43 5.69,37.69 14.49,22.24 46.02,31.29 69.91,34.97 12.37,2 25.8,3.02 39.83,3.02 8.27,0 15,-0.2 20.48,-0.6 8.58,16.28 29.47,24.4 62.39,24.4 17.1,0 38.09,-2.16 62.42,-6.41 l 2.24,-0.55 c 66.63,-21.99 105.06,-134.54 118.48,-181.92 13.17,-46.45 18.47,-58.49 39.68,-99.3 l 8.11,-17.65 c 32.82,-71.3 63.82,-138.65 -1.24,-184.85 -30.62,-21.76 -75.5,-34.75 -120.03,-34.76" />
      <path
         inkscape:connector-curvature="0"
         id="path224"
         style="fill:#351f17;fill-opacity:1;fill-rule:nonzero;stroke:none"
         d="m 3233.44,2883.62 h -0.01 c -38.43,0 -59.2,-10.88 -70.29,-23.88 -4.12,0.08 -8.32,0.08 -12.58,0.08 -14.87,0 -29.14,-1.09 -42.46,-3.24 -26.84,-4.13 -62.84,-14.79 -80.51,-41.91 -9.79,-15 -12.42,-32.5 -7.68,-50.63 3.33,-13.43 13.36,-21.92 27.15,-33.59 6.54,-5.55 13.98,-11.84 20.31,-18.33 l 0.86,-0.85 c 13.89,-13.19 25.43,-29.66 31.09,-38.29 20.32,-31.86 33.47,-71.82 44.63,-110.22 2.6,-8.98 5.15,-18.02 7.7,-27.05 12.4,-44.08 25.24,-89.66 46.33,-130.51 23.13,-49.96 75.96,-78.6 145.12,-78.6 47.67,0 95.97,14.09 129.18,37.68 34.62,24.59 49.34,58.35 43.74,100.33 -4.31,32.31 -19.6,65.54 -37.32,103.99 -2.54,5.52 -5.12,11.12 -7.71,16.83 l -0.73,1.5 c -20.9,40.22 -25.65,51 -38.49,96.33 -14.12,49.8 -54.92,168.25 -128.73,192.61 -1.47,0.48 -2.95,0.85 -4.47,1.11 -25.22,4.4 -47.13,6.64 -65.13,6.64 z m -0.01,-31.58 c 14.99,0 34.43,-1.76 59.71,-6.17 59.5,-19.63 97.13,-132.05 108.24,-171.22 13.49,-47.63 19.14,-60.5 40.86,-102.29 36.17,-79.6 70.36,-140.71 11.74,-182.33 -27.58,-19.6 -69.75,-31.84 -110.88,-31.84 -49.23,0 -97.02,17.5 -116.72,60.87 -23.98,46.14 -36.88,100.15 -52.1,152.52 -12.3,42.32 -26.12,83.55 -48.53,118.68 -4.35,6.66 -18.03,27.05 -35.77,43.91 -16.98,17.41 -38.04,31.31 -39.44,37.62 -8.73,32.44 27.44,48.2 62.6,53.61 13.2,2.13 26.26,2.83 37.42,2.83 18.92,0 32.36,-2.02 31.62,-2.54 1.74,1.23 -5.45,26.34 51.25,26.35" />
      <path
         inkscape:connector-curvature="0"
         id="path226"
         style="fill:#351f17;fill-opacity:1;fill-rule:nonzero;stroke:none"
         d="m 3180.57,2825.69 c 0,0 3.97,-1.15 10.47,-4.41 6.51,-3.24 15.3,-8.85 24.87,-16.86 4.73,-4.04 9.84,-8.52 14.61,-13.84 5.08,-5.06 9.78,-10.93 14.61,-17.06 4.47,-6.34 9.41,-12.76 13.57,-19.78 4.04,-7.07 8.46,-14.14 11.86,-21.68 3.44,-7.5 7.18,-14.9 9.78,-22.6 2.84,-7.59 5.6,-15.09 7.55,-22.54 2.16,-7.38 3.98,-14.61 5.5,-21.46 1.37,-6.91 2.38,-13.5 3.28,-19.55 1.09,-6.02 1.56,-11.63 1.78,-16.63 0.38,-4.97 0.47,-9.33 0.58,-12.9 0.18,-7.16 0.06,-11.25 0.06,-11.25 0,0 -1.81,3.75 -4.59,10.31 -2.95,6.51 -6.05,16.04 -10.77,27.07 -2.28,5.55 -4.72,11.52 -6.99,17.91 -2.57,6.29 -5.62,12.77 -8.2,19.66 -2.44,6.94 -6.19,13.6 -9.06,20.71 -2.93,7.11 -6.5,14.02 -9.84,21.04 -3.07,7.16 -7.15,13.75 -10.49,20.63 -3.63,6.69 -7.28,13.25 -10.94,19.55 -4.06,5.99 -7.31,12.32 -11.21,17.72 -3.7,5.59 -7.33,10.77 -10.78,15.54 -3.55,4.64 -6.78,9.06 -9.84,12.76 -3.07,3.71 -5.78,6.98 -8.14,9.58 -4.66,5.23 -7.67,8.08 -7.67,8.08" />
      <g
         id="g228">
        <g
           clip-path="url(#clipPath234)"
           id="g230">
          <path
             inkscape:connector-curvature="0"
             id="path236"
             style="fill:#f790ae;fill-opacity:1;fill-rule:nonzero;stroke:none"
             d="m 3076.14,2585.79 h 174.008 v 216.73 H 3076.14 Z" />
        </g>
      </g>
      <path
         inkscape:connector-curvature="0"
         id="path238"
         style="fill:#f25688;fill-opacity:1;fill-rule:nonzero;stroke:none"
         d="m 3294.18,2661.29 c -0.25,1.37 -0.51,2.76 -0.79,4.17 -1.52,6.85 -3.34,14.08 -5.5,21.46 -1.95,7.45 -4.71,14.95 -7.55,22.54 -2.6,7.7 -6.34,15.1 -9.78,22.6 -3.4,7.54 -7.82,14.61 -11.86,21.68 -4.16,7.02 -9.1,13.44 -13.57,19.78 -4.83,6.13 -9.53,12 -14.61,17.06 -4.77,5.32 -9.88,9.8 -14.61,13.84 -4.71,3.94 -9.22,7.3 -13.37,10.08 13.46,-2.47 41.69,-11.36 64.87,-43.42 19.88,-27.5 25.41,-76.84 26.77,-109.79" />
      <path
         inkscape:connector-curvature="0"
         id="path240"
         style="fill:#361d16;fill-opacity:1;fill-rule:nonzero;stroke:none"
         d="m 3294.33,2627.96 c 0,0 -17.48,121.52 -99.67,187.48 0,0 2.95,-0.04 7.88,-0.94 4.15,-2.78 8.66,-6.14 13.37,-10.08 4.73,-4.04 9.84,-8.52 14.61,-13.84 5.08,-5.06 9.78,-10.93 14.61,-17.06 4.47,-6.34 9.41,-12.76 13.57,-19.78 4.04,-7.07 8.46,-14.14 11.86,-21.68 3.44,-7.5 7.18,-14.9 9.78,-22.6 2.84,-7.59 5.6,-15.09 7.55,-22.54 2.16,-7.38 3.98,-14.61 5.5,-21.46 0.28,-1.41 0.54,-2.8 0.79,-4.17 0.81,-19.55 0.15,-33.33 0.15,-33.33" />
      <g
         style="fill:#351f17;fill-opacity:1"
         transform="translate(-43.89406,-197.2621)"
         id="g1096">
        <path
           d="m 1968.6955,2295.7449 -109.3505,1.2613 -2.9687,5.0451 v 423.1482 l 2.9687,4.4144 102.918,1.8917 q 53.9331,0 80.6523,-29.6392 27.2137,-29.6393 27.2137,-84.5034 0,-30.2701 -12.8647,-54.2338 -12.8648,-23.3331 -33.6462,-34.0537 12.3699,-5.0449 23.7502,-15.7656 11.8753,-10.7204 20.2868,-25.2248 8.4115,-14.5042 13.3596,-32.1619 5.4427,-17.6573 5.4427,-37.2066 0,-55.495 -29.1931,-89.5487 -29.193,-33.423 -88.5688,-33.423 z m -60.3653,50.4499 59.8705,0.6307 q 18.3076,0 30.6775,6.3061 12.37,6.3063 19.7918,16.3962 7.422,10.7207 10.3908,23.9637 3.4636,13.8738 3.4636,29.6393 0,13.8736 -3.9584,27.1169 -3.4637,13.8737 -11.8751,24.5943 -7.9167,10.7207 -20.7816,17.0267 -12.8646,6.9369 -30.6773,6.9369 h -56.9018 z m 0,334.8608 v -130.5388 h 51.9537 q 15.8335,0 26.719,5.045 10.8857,5.0449 17.3179,13.8738 6.9274,8.8286 9.8961,20.8104 2.9686,11.9818 2.9686,25.225 0,64.9541 -55.9121,64.9541 -18.8022,0 -32.1618,0 -12.8647,0 -20.7814,0.6305 z"
           style="font-style:normal;font-variant:normal;font-weight:normal;font-stretch:normal;font-size:386.3157959px;line-height:1.25;font-family:Signika;-inkscape-font-specification:Signika;letter-spacing:0px;word-spacing:0px;fill:#351f17;fill-opacity:1;stroke:none;stroke-width:13.96493721"
           id="path1098"
           inkscape:connector-curvature="0" />
        <path
           d="m 2219.511,2356.2848 h 98.4647 q 0,-13.8736 -1.4842,-26.4864 -4.4534,-32.1617 -34.1412,-32.1617 h -129.1422 q -13.8544,0 -22.2659,10.7208 -8.4116,11.3511 -8.4116,30.9004 v 388.464 l 3.4636,3.7837 h 19.7918 q 16.3283,0 22.7608,-10.0899 6.9271,-10.09 6.9271,-32.7924 v -334.8612 q 20.2866,2.5227 44.0371,2.5227 z"
           style="font-style:normal;font-variant:normal;font-weight:normal;font-stretch:normal;font-size:386.3157959px;line-height:1.25;font-family:Signika;-inkscape-font-specification:Signika;letter-spacing:0px;word-spacing:0px;fill:#351f17;fill-opacity:1;stroke:none;stroke-width:13.96493721"
           id="path1100"
           inkscape:connector-curvature="0" />
        <path
           d="m 2359.7236,2298.2674 v 430.7156 q 9.8959,2.5226 25.7295,2.5226 16.3282,0 26.7191,-2.5226 v -430.7156 q -10.3909,-2.5225 -26.7191,-2.5225 -15.8336,0 -25.7295,2.5225 z"
           style="font-style:normal;font-variant:normal;font-weight:normal;font-stretch:normal;font-size:386.3157959px;line-height:1.25;font-family:Signika;-inkscape-font-specification:Signika;letter-spacing:0px;word-spacing:0px;fill:#351f17;fill-opacity:1;stroke:none;stroke-width:13.96493721"
           id="path1102"
           inkscape:connector-curvature="0" />
        <text
           xml:space="preserve"
           style="font-style:normal;font-weight:normal;font-size:303.39492798px;line-height:1.25;font-family:sans-serif;letter-spacing:0px;word-spacing:0px;fill:#351f17;fill-opacity:1;stroke:none;stroke-width:7.58487225"
           x="1689.9165"
           y="-2219.6282"
           id="text1072-3"
           transform="scale(1.0796024,-0.92626693)"><tspan
             sodipodi:role="line"
             id="tspan1070-6"
             x="1689.9165"
             y="-2219.6282"
             style="font-style:normal;font-variant:normal;font-weight:normal;font-stretch:normal;font-family:Signika;-inkscape-font-specification:Signika;fill:#351f17;fill-opacity:1;stroke-width:7.58487225">BOX</tspan></text>
      </g>
    </g>
  </g>
</svg>
